<svg width="997" height="483" viewBox="0 0 997 483" fill="none" xmlns="http://www.w3.org/2000/svg">
<path d="M78.7646 450.456C-14.9611 425.576 -9.26446 379.251 30.1624 332.99C69.8546 286.723 143.01 240.462 264.943 228.926C386.61 217.395 557.054 240.526 695.832 260.681C834.874 280.767 942.252 297.877 979.424 323.471C1016.59 349.003 983.293 383.088 901.263 410.922C819.5 438.75 689.274 460.384 527.455 469.547C365.636 478.648 172.489 475.274 78.7646 450.456Z" fill="#F4F0EA"/>
<g clip-path="url(#clip0_170_5)">
<path d="M699.832 151.553V86.1911C699.832 79.674 704.892 74.3723 711.112 74.3723H751.92C758.14 74.3723 763.2 79.674 763.2 86.1911V151.553C763.2 158.07 758.14 163.371 751.92 163.371H711.112C704.892 163.371 699.832 158.07 699.832 151.553Z" fill="#FDF9B2"/>
<path d="M720.73 102.626H742.302V96.9752H720.73V102.626Z" fill="#3F3D56"/>
<path d="M726.123 92.7373H736.909V74.3724H726.123V92.7373Z" fill="#3F3D56"/>
<path d="M726.123 163.371H736.909V145.006H726.123V163.371Z" fill="#3F3D56"/>
<path d="M670.844 154.194H608.463C602.244 154.194 597.184 148.892 597.184 142.375V99.6169C597.184 93.0998 602.244 87.7981 608.463 87.7981H670.844C677.064 87.7981 682.124 93.0998 682.124 99.6169V142.375C682.124 148.892 677.064 154.194 670.844 154.194Z" fill="#FDF9B2"/>
<path d="M651.788 96.9805H630.216V102.631H651.788V96.9805Z" fill="#3F3D56"/>
<path d="M614.711 126.647V115.345H597.184V126.647H614.711Z" fill="#3F3D56"/>
<path d="M682.124 126.647V115.345H664.596V126.647H682.124Z" fill="#3F3D56"/>
<path d="M164.825 276.417L154.411 212.767C149.784 184.484 169.763 158.312 197.113 156.828L345.572 148.771L381.003 87.5847C385.7 79.4731 394.098 74.5195 403.154 74.5195H509.825C518.21 74.5195 525.295 81.0346 526.383 89.7459L529.092 138.705L795.036 139.539L828.491 255.061L797.438 253.474L799.031 288.515L758.422 290.183L744.885 250.077C742.336 242.525 731.167 234.01 719.557 226.886C693.53 210.915 660.092 216.041 640.396 239.975C635.75 245.622 632.501 251.505 631.594 257.021L625.45 294.355L327.656 289.349L288.628 232.145C277.097 218.997 222.664 214.168 217.762 232.145L188.314 277.669L164.825 276.417Z" fill="#E6E6E6"/>
<path d="M488.494 111.751L497.256 155.028L385.782 157.531L409.326 104.566C411.462 99.7614 416.15 96.7783 421.204 97.0085L474.621 99.442C481.383 99.7501 487.09 104.813 488.494 111.751Z" fill="white"/>
<path d="M370.654 154.194L392.948 94.1255L387.111 88.0095L350.748 145.851L358.136 157.531L370.654 154.194Z" fill="white"/>
<path d="M689.946 349.418C718.969 349.418 742.498 324.765 742.498 294.355C742.498 263.944 718.969 239.292 689.946 239.292C660.922 239.292 637.394 263.944 637.394 294.355C637.394 324.765 660.922 349.418 689.946 349.418Z" fill="#3F3D56"/>
<path d="M653.717 294.355C653.717 273.423 669.969 256.395 689.946 256.395C709.922 256.395 726.175 273.423 726.175 294.355C726.175 315.286 709.922 332.315 689.946 332.315C669.969 332.315 653.717 315.286 653.717 294.355ZM654.513 294.355C654.513 314.826 670.408 331.481 689.946 331.481C709.484 331.481 725.378 314.826 725.378 294.355C725.378 273.884 709.484 257.229 689.946 257.229C670.408 257.229 654.513 273.884 654.513 294.355Z" fill="white"/>
<path d="M658.893 294.355C658.893 312.324 672.796 326.892 689.946 326.892C707.096 326.892 720.999 312.324 720.999 294.355C720.999 276.385 707.096 261.817 689.946 261.817C672.796 261.817 658.893 276.385 658.893 294.355ZM710.132 286.563L704.63 290.32L702.516 286.922L710.132 286.563ZM701.755 305.672L703.221 301.917L707.834 308.276L701.755 305.672ZM687.667 318.549L691.538 311.668V318.549H687.667ZM687.667 278.71L691.538 271.829V278.71H687.667ZM670.465 308.276L675.079 301.917L676.544 305.672L670.465 308.276ZM668.168 286.563L675.784 286.922L673.67 290.32L668.168 286.563Z" fill="#E6E6E6"/>
<path d="M248.829 349.418C277.852 349.418 301.381 324.765 301.381 294.355C301.381 263.944 277.852 239.292 248.829 239.292C219.805 239.292 196.277 263.944 196.277 294.355C196.277 324.765 219.805 349.418 248.829 349.418Z" fill="#3F3D56"/>
<path d="M212.6 294.355C212.6 273.423 228.852 256.395 248.829 256.395C268.805 256.395 285.057 273.423 285.057 294.355C285.057 315.286 268.805 332.315 248.829 332.315C228.852 332.315 212.6 315.286 212.6 294.355ZM213.396 294.355C213.396 314.826 229.291 331.481 248.829 331.481C268.366 331.481 284.261 314.826 284.261 294.355C284.261 273.884 268.366 257.229 248.829 257.229C229.291 257.229 213.396 273.884 213.396 294.355Z" fill="white"/>
<path d="M217.775 294.355C217.775 312.324 231.678 326.892 248.829 326.892C265.979 326.892 279.882 312.324 279.882 294.355C279.882 276.385 265.979 261.817 248.829 261.817C231.678 261.817 217.775 276.385 217.775 294.355ZM269.015 286.563L263.512 290.32L261.399 286.922L269.015 286.563ZM260.638 305.672L262.103 301.917L266.717 308.276L260.638 305.672ZM246.55 318.549L250.421 311.668V318.549H246.55ZM246.55 278.71L250.421 271.829V278.71H246.55ZM229.348 308.276L233.962 301.917L235.427 305.672L229.348 308.276ZM227.051 286.563L234.666 286.922L232.553 290.32L227.051 286.563Z" fill="#E6E6E6"/>
<path d="M468.193 177.137H498.45V170.463H468.193V177.137Z" fill="#3F3D56"/>
<path d="M894.664 308.157C894.382 307.253 892.244 307.651 892.039 306.843C891.835 306.037 893.886 305.361 895.459 303.09C895.742 302.68 897.53 300.099 896.845 299.014C895.545 296.956 886.503 302.081 884.332 299.205C883.856 298.574 883.66 297.491 882.241 295.474C881.677 294.672 881.314 294.285 880.882 294.296C880.268 294.313 880.048 295.117 879.083 296.575C877.636 298.762 877.113 298.487 876.16 300.279C875.452 301.609 875.368 302.458 874.858 302.508C874.136 302.579 873.837 300.924 872.955 300.859C872.054 300.794 871.153 302.43 870.706 303.708C869.868 306.107 870.387 307.94 870.502 309.767C870.627 311.753 870.334 314.66 868.275 318.39L848.853 350.812C853.024 344.203 864.864 326.179 869.634 319.568C871.011 317.66 872.491 315.743 874.769 315.383C876.962 315.036 879.63 316.173 883.354 316.106C883.789 316.099 885 316.061 885.294 315.389C885.537 314.833 884.933 314.35 885.153 313.827C885.448 313.127 886.775 313.427 888.583 312.962C889.858 312.634 890.724 312.092 891.469 311.625C891.694 311.485 895.039 309.361 894.664 308.157Z" fill="#F2F2F2"/>
<path d="M843.795 315.727C843.29 315.611 842.86 316.826 842.422 316.698C841.985 316.57 842.261 315.321 841.651 313.856C841.541 313.592 840.848 311.928 840.141 311.968C838.803 312.042 838.594 318.171 836.621 318.457C836.188 318.52 835.624 318.308 834.27 318.456C833.731 318.515 833.445 318.59 833.326 318.816C833.156 319.136 833.47 319.481 833.874 320.398C834.481 321.773 834.202 321.963 834.766 322.97C835.184 323.718 835.558 324.006 835.434 324.283C835.259 324.675 834.398 324.35 834.113 324.786C833.822 325.23 834.329 326.165 834.799 326.764C835.68 327.887 836.689 328.149 837.578 328.617C838.544 329.126 839.821 330.115 840.974 332.251L850.558 351.593C848.665 347.541 843.639 336.252 841.918 331.892C841.422 330.633 840.951 329.319 841.439 328.043C841.91 326.815 843.212 325.771 844.255 323.837C844.377 323.611 844.709 322.978 844.479 322.632C844.289 322.347 843.888 322.518 843.707 322.254C843.464 321.901 843.987 321.305 844.291 320.241C844.505 319.49 844.501 318.888 844.498 318.371C844.497 318.215 844.467 315.882 843.795 315.727Z" fill="#F2F2F2"/>
<path d="M853.356 320.447L853.657 317.533L853.842 317.35C854.697 316.503 855.232 315.606 855.432 314.683C855.464 314.537 855.489 314.388 855.514 314.237C855.614 313.638 855.738 312.893 856.288 312.119C856.596 311.688 857.41 310.714 858.249 311.055C858.476 311.144 858.629 311.297 858.735 311.461C858.761 311.432 858.789 311.404 858.818 311.373C859.181 311.004 859.434 310.869 859.679 310.739C859.866 310.638 860.06 310.535 860.388 310.26C860.532 310.14 860.647 310.031 860.745 309.94C861.039 309.665 861.416 309.342 861.932 309.47C862.479 309.626 862.667 310.173 862.791 310.535C863.013 311.181 863.082 311.625 863.127 311.919C863.143 312.027 863.162 312.148 863.176 312.187C863.296 312.504 864.799 312.585 865.365 312.62C866.636 312.692 867.736 312.754 868.001 313.666C868.19 314.319 867.795 315.031 866.791 315.838C866.478 316.089 866.166 316.262 865.893 316.392C866.061 316.558 866.194 316.783 866.202 317.091C866.221 317.819 865.508 318.377 864.085 318.753C863.732 318.848 863.256 318.973 862.633 318.942C862.34 318.926 862.083 318.879 861.864 318.835C861.832 318.966 861.772 319.102 861.664 319.231C861.347 319.611 860.836 319.707 860.141 319.493C859.375 319.27 858.769 318.965 858.235 318.698C857.768 318.465 857.365 318.265 857.028 318.211C856.399 318.119 855.814 318.525 855.113 319.066L853.356 320.447Z" fill="#F2F2F2"/>
<path d="M858.37 303.849L855.603 304.283L855.387 304.142C854.389 303.49 853.425 303.176 852.522 303.206C852.379 303.211 852.236 303.224 852.09 303.237C851.511 303.287 850.792 303.35 849.938 302.989C849.462 302.787 848.357 302.209 848.458 301.272C848.482 301.02 848.586 300.826 848.709 300.677C848.677 300.657 848.644 300.636 848.608 300.614C848.175 300.341 847.986 300.118 847.804 299.903C847.663 299.738 847.519 299.568 847.182 299.305C847.034 299.19 846.905 299.101 846.796 299.025C846.467 298.797 846.073 298.497 846.061 297.941C846.066 297.347 846.524 297.018 846.826 296.8C847.366 296.411 847.758 296.229 848.019 296.109C848.114 296.065 848.221 296.015 848.254 295.991C848.515 295.789 848.21 294.245 848.098 293.663C847.842 292.356 847.621 291.225 848.396 290.726C848.95 290.368 849.707 290.589 850.707 291.401C851.018 291.655 851.258 291.927 851.446 292.171C851.557 291.959 851.731 291.766 852.013 291.68C852.68 291.477 853.376 292.057 854.085 293.404C854.262 293.738 854.498 294.189 854.627 294.828C854.687 295.129 854.709 295.401 854.724 295.634C854.853 295.634 854.993 295.66 855.14 295.737C855.571 295.961 855.79 296.455 855.768 297.214C855.756 298.047 855.629 298.738 855.517 299.348C855.421 299.88 855.339 300.339 855.374 300.695C855.449 301.355 855.972 301.845 856.649 302.419L858.37 303.849Z" fill="#F2F2F2"/>
<path d="M858.742 295.144L859.043 292.229L859.228 292.046C860.083 291.2 860.618 290.303 860.818 289.38C860.85 289.233 860.875 289.085 860.9 288.934C861 288.335 861.124 287.59 861.674 286.816C861.982 286.385 862.796 285.411 863.635 285.751C863.862 285.84 864.015 285.994 864.121 286.157C864.148 286.129 864.175 286.101 864.204 286.07C864.567 285.701 864.82 285.566 865.065 285.435C865.253 285.335 865.446 285.232 865.775 284.957C865.918 284.837 866.034 284.728 866.131 284.637C866.425 284.361 866.802 284.039 867.318 284.167C867.865 284.323 868.053 284.87 868.177 285.232C868.399 285.878 868.468 286.322 868.513 286.616C868.529 286.724 868.548 286.845 868.563 286.884C868.682 287.2 870.186 287.282 870.751 287.316C872.022 287.389 873.122 287.451 873.387 288.363C873.577 289.016 873.181 289.727 872.177 290.535C871.864 290.786 871.552 290.959 871.279 291.089C871.447 291.255 871.58 291.48 871.589 291.788C871.607 292.515 870.895 293.074 869.471 293.45C869.118 293.545 868.642 293.67 868.02 293.638C867.726 293.623 867.47 293.576 867.251 293.532C867.218 293.663 867.158 293.799 867.05 293.928C866.734 294.308 866.222 294.404 865.528 294.19C864.761 293.966 864.155 293.662 863.621 293.394C863.154 293.161 862.752 292.962 862.414 292.908C861.786 292.816 861.2 293.222 860.499 293.763L858.742 295.144Z" fill="#F2F2F2"/>
<path d="M849.772 350.978L849.282 350.472L848.602 350.397C848.606 350.33 848.601 350.173 848.596 349.928C848.57 348.588 848.489 344.508 849.031 338.239C849.41 333.863 850.042 329.421 850.912 325.034C851.782 320.641 852.686 317.372 853.411 314.744C853.959 312.763 854.512 310.883 855.052 309.052C856.492 304.16 857.852 299.54 858.694 294.269C858.882 293.092 859.274 290.643 858.472 287.753C858.007 286.076 857.211 284.498 856.106 283.064L857.176 282.158C858.396 283.743 859.276 285.491 859.793 287.352C860.681 290.557 860.255 293.226 860.05 294.508C859.193 299.872 857.819 304.537 856.365 309.476C855.828 311.3 855.277 313.171 854.732 315.145C854.013 317.748 853.117 320.989 852.258 325.326C851.399 329.66 850.774 334.048 850.4 338.369C849.865 344.558 849.945 348.578 849.971 349.898C849.985 350.603 849.988 350.751 849.772 350.978Z" fill="#F2F2F2"/>
<path d="M853.169 284.722C853.114 284.709 853.059 284.695 853.003 284.677C851.875 284.346 850.969 283.382 850.312 281.813C850.004 281.076 849.931 280.299 849.786 278.751C849.763 278.512 849.663 277.304 849.786 275.703C849.867 274.657 849.974 274.237 850.246 273.907C850.548 273.539 850.954 273.329 851.384 273.223C851.395 273.084 851.439 272.949 851.524 272.821C851.878 272.288 852.469 272.507 852.79 272.621C852.952 272.681 853.154 272.759 853.38 272.799C853.736 272.863 853.949 272.798 854.271 272.7C854.579 272.606 854.962 272.49 855.492 272.5C856.537 272.515 857.31 273.007 857.565 273.169C858.908 274.014 859.372 275.363 859.909 276.926C860.015 277.239 860.369 278.371 860.452 279.828C860.511 280.88 860.38 281.31 860.229 281.618C859.921 282.25 859.449 282.544 858.279 283.161C857.056 283.807 856.443 284.131 855.94 284.297C854.769 284.682 854.034 284.924 853.169 284.722Z" fill="#F2F2F2"/>
<path d="M97 349.727C97 350.277 97.7367 350.719 98.6542 350.719H888.342C889.259 350.719 889.996 350.277 889.996 349.727C889.996 349.176 889.259 348.734 888.342 348.734H98.6542C97.7367 348.734 97 349.176 97 349.727Z" fill="#CCCCCC"/>
<path d="M498.258 343.458L509.313 343.457L514.572 298.776L498.255 298.777L498.258 343.458Z" fill="#FFB6B6"/>
<path d="M536.135 343.195C536.48 343.803 536.661 345.763 536.661 346.47C536.661 348.641 534.981 350.401 532.909 350.401L498.671 350.401C497.258 350.401 496.111 349.201 496.111 347.719V346.226C496.111 346.226 494.418 341.737 497.905 336.204C497.905 336.204 502.239 340.536 508.715 333.751L510.624 330.126L524.448 340.719L532.11 341.707C533.787 341.923 535.273 341.674 536.135 343.195Z" fill="#2F2E41"/>
<path d="M448.586 343.458L459.642 343.457L464.901 298.776L448.584 298.777L448.586 343.458Z" fill="#FFB6B6"/>
<path d="M486.464 343.195C486.808 343.803 486.99 345.763 486.99 346.47C486.99 348.641 485.31 350.401 483.238 350.401L449 350.401C447.586 350.401 446.44 349.201 446.44 347.719V346.226C446.44 346.226 444.746 341.737 448.233 336.204C448.233 336.204 452.567 340.536 459.043 333.751L460.953 330.126L474.777 340.719L482.439 341.707C484.115 341.923 485.602 341.674 486.464 343.195Z" fill="#2F2E41"/>
<path d="M496.507 38.3661L498.606 58.8909L474.12 56.6918L478.317 37.6331L496.507 38.3661Z" fill="#FFB6B6"/>
<path opacity="0.1" d="M496.507 38.3661L498.606 58.8909L474.12 56.6918L478.317 37.6331L496.507 38.3661Z" fill="black"/>
<path d="M487.762 40.9318C496.648 40.9318 503.852 33.3834 503.852 24.0721C503.852 14.7607 496.648 7.2124 487.762 7.2124C478.875 7.2124 471.671 14.7607 471.671 24.0721C471.671 33.3834 478.875 40.9318 487.762 40.9318Z" fill="#FFB6B6"/>
<path d="M498.256 50.4612L525.19 66.9543L516.365 111.669L522.392 171.778L518.194 319.116L492.309 316.184L488.811 190.836L468.523 320.583H443.387L447.535 180.574L460.128 121.199L452.432 56.6919L475.868 48.9951L498.256 50.4612Z" fill="#2F2E41"/>
<path d="M499.305 28.8368C499.305 28.8368 500.704 23.7055 503.853 24.0721C507.001 24.4386 507.7 21.5065 507.001 20.0404C506.301 18.5744 504.902 11.244 504.902 11.244C504.902 11.244 505.602 6.11284 501.404 5.37981C497.206 4.64678 495.807 3.91375 495.108 2.4477C494.408 0.981634 483.914 -0.48442 480.416 1.71467C476.918 3.91375 474.12 8.133 471.671 9.32201C469.222 10.511 467.124 12.7101 468.523 16.3753C469.922 20.0404 471.951 27.2086 471.951 27.2086C471.951 27.2086 475.519 25.9046 476.218 28.1037C476.918 30.3028 474.12 27.3707 477.618 21.5065C481.116 15.6422 481.116 9.77799 486.712 11.9771C492.309 14.1762 498.606 13.4431 497.906 17.8413C497.206 22.2395 499.305 28.8368 499.305 28.8368Z" fill="#2F2E41"/>
<path d="M511.301 158.628C507.933 162.364 507.043 167.213 509.313 169.458C511.582 171.703 516.151 170.494 519.519 166.756C520.884 165.282 521.893 163.488 522.46 161.522L536.537 145.504L529.222 138.742L516.121 155.251C514.28 155.957 512.627 157.115 511.301 158.628Z" fill="#FFB6B6"/>
<path d="M524.907 66.5879L548.613 108.906L552.125 128.225L529.297 158.583L519.639 145.704L531.053 128.225L512.615 94.1864L524.907 66.5879Z" fill="#2F2E41"/>
<path d="M458.255 154.688V104.793C458.255 97.1878 464.16 91.0012 471.418 91.0012H544.21C551.468 91.0012 557.372 97.1878 557.372 104.793V154.688C557.372 162.292 551.468 168.479 544.21 168.479H471.418C464.16 168.479 458.255 162.292 458.255 154.688Z" fill="#FDF9B2"/>
<path d="M493.654 122.493H518.827V115.899H493.654V122.493Z" fill="#3F3D56"/>
<path d="M516.764 168.037V154.849H496.311V168.037H516.764Z" fill="#3F3D56"/>
<path d="M517.724 104.631V91.4431H497.271V104.631H517.724Z" fill="#3F3D56"/>
<path d="M465.622 149.098C468.989 152.834 469.879 157.683 467.61 159.928C465.34 162.173 460.772 160.964 457.403 157.227C456.038 155.753 455.03 153.958 454.463 151.992L440.386 135.974L447.7 129.213L460.801 145.722C462.643 146.428 464.296 147.586 465.622 149.098Z" fill="#FFB6B6"/>
<path d="M452.016 57.0583L428.31 99.3761L424.798 118.695L447.626 149.054L457.284 136.174L445.87 118.695L464.308 84.6569L452.016 57.0583Z" fill="#2F2E41"/>
<path d="M157.248 258.842C169.121 258.842 178.746 250.064 178.746 239.236C178.746 228.408 169.121 219.631 157.248 219.631C145.375 219.631 135.75 228.408 135.75 239.236C135.75 250.064 145.375 258.842 157.248 258.842Z" fill="#E6E6E6"/>
</g>
<defs>
<clipPath id="clip0_170_5">
<rect width="800" height="351" fill="white" transform="translate(97 0.593262)"/>
</clipPath>
</defs>
</svg>
