<svg width="608" height="641" viewBox="0 0 608 641" fill="none" xmlns="http://www.w3.org/2000/svg">
<path d="M606.129 297.868C594.242 385.308 505.965 468.863 405.424 537.469C304.776 605.967 191.855 659.739 125.636 627.549C59.5235 595.466 39.9971 477.537 26.5545 379.065C12.8888 280.602 5.30681 201.595 39.2812 137.699C73.14 73.9192 148.779 25.2407 230.672 9.6056C312.458 -6.13617 400.508 10.9422 476.953 65.0806C553.283 119.336 617.901 210.544 606.129 297.868Z" fill="#F4F0EA"/>
<g clip-path="url(#clip0_176_4)">
<path d="M227.091 513.288C233.492 512.825 235.161 514.109 244.844 513.288H262.598L260.288 470.068L232.34 481.461L93.4499 484.93L93.5313 485.169C93.5942 485.354 99.7606 503.703 94.9405 510.652L94.7406 510.939L95.1306 510.943L222.54 512.132C223.931 512.145 225.711 513.388 227.091 513.288Z" fill="#F4F4F4"/>
<path d="M219.887 513.853C232.251 512.958 245.053 517.848 255.738 512.328L264.28 512.854L264.304 512.781C264.37 512.58 268.405 480.284 260.248 467.762L259.889 467.211L259.609 470.177L262.298 510.408L256.338 508.385C241.863 515.315 224.649 510.738 208.082 510.675L95.3374 510.251C92.9757 510.243 91.0083 511.884 90.9454 513.911L90.9393 514.109L213.077 514.099C215.355 514.099 217.625 514.017 219.887 513.853Z" fill="#CCCCCC"/>
<path d="M101.28 493.646L228.157 491.081L228.287 491.032L258.263 479.603L257.697 478.065L227.85 489.446L101.248 492.004L101.28 493.646Z" fill="#E6E6E6"/>
<path d="M101.958 500.557L228.834 497.992L228.963 497.943L258.94 486.514L258.374 484.977L228.526 496.357L101.925 498.916L101.958 500.557Z" fill="#E6E6E6"/>
<path d="M102.634 507.469L229.511 504.903L229.64 504.854L259.617 493.425L259.051 491.887L229.203 503.268L102.602 505.828L102.634 507.469Z" fill="#E6E6E6"/>
<path d="M219.01 485.376C230.774 484.568 242.244 481.275 252.688 475.71L261.482 470.964L261.252 468.619C261.188 468.274 261.001 467.967 260.727 467.754C260.453 467.542 260.112 467.44 259.769 467.468L258.992 467.478L140.669 469.249C132.924 469.347 125.251 470.764 117.967 473.441L92.1858 482.962L92.1994 483.1C92.4159 485.31 94.6063 487.018 97.1866 486.988L213.739 485.598C215.502 485.577 217.259 485.503 219.01 485.376Z" fill="#E6E6E6"/>
<path d="M92.4336 483.47L92.4602 483.468L234.352 480.161L234.45 480.115L260.033 468.063L259.773 467.66L258.996 467.67L234.115 479.398L93.5383 482.671L92.4118 482.698L92.4336 483.47Z" fill="#CCCCCC"/>
<path d="M202.742 468.514L204.543 468.488L245.207 467.876L247.134 467.848C237.843 477.911 217.299 480.429 187.186 476.53L202.742 468.514Z" fill="#CCCCCC"/>
<path d="M88.4127 227.834L85.932 233.705L89.9862 254.552L131.347 248.702L131.017 223.281L130.187 217.713L88.4127 227.834Z" fill="#FFB6B6"/>
<path d="M67.0435 498.019H76.1686L80.5117 462.214H67.0435V498.019Z" fill="#FFB6B6"/>
<path d="M94.1865 510.137C94.1857 511.189 93.7746 512.197 93.0437 512.941C92.3128 513.684 91.3216 514.102 90.2879 514.103H72.9277L69.9351 507.819L68.7729 514.103H62.2296L64.0691 491.658L67.0433 491.481L77.0367 490.876L78.6473 490.773V497.132L92.5027 506.869C93.0223 507.235 93.447 507.723 93.7402 508.292C94.0335 508.862 94.1867 509.495 94.1865 510.137Z" fill="#2F2E41"/>
<path d="M151.386 456.974H160.511L165.879 404.261L148.733 403.219L151.386 456.974Z" fill="#FFB6B6"/>
<path d="M178.529 469.092C178.528 470.143 178.117 471.152 177.386 471.895C176.656 472.639 175.664 473.057 174.631 473.058H157.27L154.278 466.774L153.116 473.058H146.572L148.412 450.612L151.066 450.454L161.233 449.83L162.99 449.728V456.086L176.845 465.824C177.365 466.19 177.79 466.678 178.083 467.247C178.376 467.816 178.529 468.449 178.529 469.092Z" fill="#2F2E41"/>
<path d="M63.1701 467.143H63.2056L64.9606 408.925C63.8249 406.697 63.2485 404.217 63.2828 401.707C63.317 399.197 63.9608 396.735 65.1569 394.54L65.4081 394.077L64.7567 391.005C63.92 387.058 64.3039 382.945 65.8559 379.228L67.4931 324.922C61.6441 286.361 89.5186 261.212 89.5186 261.212L86.9567 241.001L132.042 242.044L131.275 261.212L140.24 292.545C144.958 339.304 176.71 368.694 171.884 413.408C171.874 413.537 171.893 413.666 171.939 413.786C172.428 415.301 172.601 416.903 172.445 418.49C172.289 420.076 171.807 421.612 171.032 422.998C170.831 423.352 170.693 423.738 170.624 424.141C169.63 431.98 169.5 422.064 168.183 429.834L168.439 429.965C169.362 430.29 169.758 431.591 169.324 432.871C168.889 434.152 167.789 434.928 166.865 434.603L142.764 434.865C141.841 434.541 141.445 433.24 141.879 431.96C142.314 430.679 143.414 429.903 144.338 430.228L145.837 430.999L143.328 422.65L142.449 421.815C142.028 421.415 141.701 420.923 141.493 420.376C141.285 419.829 141.201 419.241 141.248 418.657C141.294 418.073 141.471 417.507 141.763 417.001C142.055 416.496 142.456 416.064 142.935 415.739L140.436 402.171L140.791 391.91L140.06 380.269L108.436 333.653L95.6413 398.043L82.5724 467.791C82.8772 468.071 83.1063 468.425 83.2376 468.821C83.3689 469.217 83.3979 469.64 83.322 470.051C83.2017 470.624 82.8891 471.137 82.4378 471.502C81.9864 471.866 81.4244 472.06 80.8481 472.049H63.1064C62.7345 472.049 62.3676 471.961 62.0344 471.793C61.7012 471.625 61.4107 471.381 61.1855 471.079C60.9603 470.778 60.8064 470.428 60.736 470.057C60.6655 469.685 60.6803 469.302 60.7793 468.937C60.929 468.413 61.2441 467.953 61.6762 467.628C62.1083 467.304 62.6333 467.134 63.1701 467.143Z" fill="#2F2E41"/>
<path d="M78.9475 128.772C78.9462 132.489 79.8418 136.15 81.5557 139.433C83.2697 142.715 85.7495 145.52 88.7777 147.6C91.8058 149.68 95.2895 150.972 98.9231 151.363C102.557 151.753 106.229 151.231 109.618 149.841C113.006 148.45 116.008 146.235 118.358 143.39C120.709 140.544 122.337 137.155 123.1 133.52C123.862 129.885 123.736 126.115 122.732 122.541C121.728 118.967 119.877 115.699 117.341 113.022L117.234 112.913C117.055 112.723 116.877 112.532 116.689 112.35L116.686 112.35L116.683 112.348L116.681 112.345L116.68 112.341C116.424 112.151 116.188 111.935 115.975 111.696C112.962 107.413 109.545 103.821 101.269 106.065C89.3548 109.295 78.9475 116.229 78.9475 128.772Z" fill="#2F2E41"/>
<path d="M201.566 119.052C201.617 120.266 201.405 121.478 200.946 122.6C200.486 123.723 199.791 124.73 198.907 125.549C198.024 126.368 196.975 126.981 195.834 127.343C194.693 127.706 193.488 127.809 192.303 127.647L134.736 175.708L125.943 159.986L185.295 117.687C185.695 115.68 186.805 113.893 188.415 112.664C190.024 111.435 192.021 110.849 194.026 111.017C196.032 111.185 197.907 112.096 199.297 113.577C200.687 115.058 201.494 117.006 201.566 119.052Z" fill="#FFB6B6"/>
<path d="M110.428 189.882C110.428 189.882 110.446 188.151 119.598 188.217C130.957 188.3 162.242 171.71 159.505 156.085C160.805 156.682 162.262 156.823 163.649 156.485C165.035 156.146 166.272 155.348 167.163 154.216L151.933 139.299C147.154 139.628 147.105 142.881 147.514 144.749L135.274 149.697L103.394 168.329L109.023 187.045L110.428 189.882Z" fill="#FDF9B2"/>
<path d="M106.768 153.068C96.4309 153.068 88.0506 144.543 88.0506 134.026C88.0506 123.51 96.4309 114.985 106.768 114.985C117.106 114.985 125.486 123.51 125.486 134.026C125.486 144.543 117.106 153.068 106.768 153.068Z" fill="#FFB7B7"/>
<path d="M132.495 228.736C133.529 230.139 134.056 231.862 133.99 233.615C133.923 235.368 133.266 237.044 132.129 238.362C132.119 238.92 132.037 239.46 131.259 241.462C131.157 241.656 131.038 241.84 130.902 242.011C130.877 242.053 130.85 242.093 130.82 242.132C130.001 243.21 128.861 243.991 127.571 244.357L93.3081 254.086L88.7781 255.371L87.9819 255.594L87.5427 249.301C86.5239 248.442 85.8411 247.24 85.6179 245.913C85.3946 244.586 85.6457 243.222 86.3256 242.067L86.957 241.006L83.2781 230.942L82.9212 229.946L73.5409 204.261L73.5318 202.548L73.5135 200.779L73.4219 188.435C73.4176 184.544 74.2995 180.705 75.9984 177.219C77.6974 173.734 80.1671 170.696 83.214 168.344C85.9892 166.187 89.1884 164.663 92.5943 163.876L92.6675 163.866L96.3738 158.793L111.41 160.32L112.654 162.917L114.164 166.045L125.064 172.645L128.788 181.452L131.305 187.41C135.203 190.259 137.528 193.918 138.196 198.275C139.624 207.529 133.254 216.792 132.495 217.853L132.302 228.475L132.495 228.736Z" fill="#FDF9B2"/>
<path d="M87.1795 139.018C87.3491 138.991 87.5187 138.954 87.6884 138.927C90.6081 138.4 93.5278 137.883 96.4386 137.347L96.7065 130.634L100.233 136.647C108.278 139.363 115.805 137.828 122.886 134.44C125.221 133.312 127.487 132.041 129.671 130.634C130.391 119.282 125.879 112.015 117.484 112.777C117.177 112.805 116.957 112.487 116.689 112.35L116.686 112.35L116.683 112.348L116.681 112.345L116.68 112.341C116.225 112.123 115.76 111.914 115.296 111.724C111.661 110.278 107.698 109.912 103.866 110.668C100.035 111.424 96.4935 113.27 93.6529 115.993C87.9384 121.542 85.367 130.707 87.1795 139.018Z" fill="#2F2E41"/>
<path d="M87.6886 138.927C87.6886 138.927 93.2334 117.873 117.002 113.013C117.029 113.004 117.118 112.968 117.234 112.913C117.305 112.868 117.395 112.823 117.484 112.777C117.216 112.623 116.957 112.487 116.689 112.35L116.686 112.35L116.683 112.348L116.681 112.345L116.68 112.341C116.448 112.123 116.216 111.905 115.975 111.696L115.296 111.724C115.296 111.724 91.4477 107.881 87.6886 138.927Z" fill="#FD6584"/>
<path d="M78.5447 271.65C78.9849 272.033 79.5201 272.285 80.0917 272.379C80.6633 272.473 81.2493 272.405 81.7857 272.183C82.8527 271.723 83.8006 271.018 84.5552 270.123C87.634 266.837 89.8338 262.804 90.9448 258.408L89.9177 256.55C90.321 254.258 89.9417 251.895 88.8429 249.853C87.7442 247.811 85.9919 246.213 83.8771 245.323C82.6739 244.804 81.3399 244.686 80.0666 244.986C79.4352 245.146 78.8579 245.476 78.3957 245.941C77.9334 246.407 77.6035 246.991 77.4406 247.632C77.0451 249.62 78.6729 251.415 80.3211 252.556C83.193 254.539 86.5129 255.747 89.9694 256.068C85.7414 258.492 82.0865 261.829 79.2615 265.843C78.6084 266.681 78.1268 267.643 77.8449 268.672C77.7095 269.189 77.7025 269.731 77.8247 270.251C77.9469 270.771 78.1943 271.252 78.5447 271.65Z" fill="#2F2E41"/>
<path d="M315.142 514.779H1.00651C0.739629 514.779 0.483667 514.671 0.294952 514.479C0.106237 514.287 0.000221215 514.027 0.000221215 513.755C0.000221215 513.484 0.106237 513.223 0.294952 513.031C0.483667 512.839 0.739629 512.731 1.00651 512.731H315.142C315.409 512.731 315.665 512.839 315.854 513.031C316.042 513.223 316.148 513.484 316.148 513.755C316.148 514.027 316.042 514.287 315.854 514.479C315.665 514.671 315.409 514.779 315.142 514.779Z" fill="#CCCCCC"/>
<path d="M231.714 251.604V252.139C232.846 250.79 234 249.453 235.143 248.116C235.623 247.558 236.103 247 236.583 246.442C238.618 244.093 240.664 241.752 242.721 239.419C244.79 237.093 246.859 234.768 248.951 232.454C249.453 231.896 249.956 231.338 250.471 230.779C250.882 230.31 251.329 229.875 251.808 229.477C252.291 229.068 252.845 228.757 253.442 228.558C254.129 228.365 254.854 228.357 255.545 228.535C256.334 228.721 257.089 229.012 257.854 229.256C258.643 229.524 259.42 229.779 260.209 230.035C261.786 230.558 263.352 231.082 264.93 231.605C264.949 231.613 264.969 231.617 264.989 231.617C265.01 231.617 265.03 231.612 265.049 231.604C265.068 231.596 265.085 231.584 265.1 231.569C265.114 231.554 265.125 231.537 265.133 231.518L265.135 231.512C265.144 231.49 265.148 231.466 265.147 231.442C265.146 231.418 265.14 231.395 265.129 231.374C265.118 231.353 265.103 231.335 265.084 231.32C265.065 231.306 265.044 231.296 265.021 231.291C264.632 231.163 264.232 231.035 263.832 230.907C262.243 230.372 260.666 229.849 259.077 229.326C258.289 229.059 257.5 228.803 256.711 228.547C255.98 228.264 255.207 228.107 254.425 228.082C253.149 228.175 251.951 228.747 251.065 229.686C250.573 230.152 250.128 230.64 249.682 231.14C249.156 231.721 248.63 232.303 248.104 232.884C245.99 235.233 243.891 237.589 241.807 239.953C239.715 242.325 237.642 244.701 235.589 247.081C235.44 247.256 235.292 247.43 235.143 247.604C233.989 248.93 232.857 250.267 231.714 251.604Z" fill="white"/>
<path d="M251.985 231.619C252.417 231.053 252.993 230.618 253.65 230.361L254.3 230.384C249.198 238.46 242.515 245.378 234.667 250.708C240.44 244.345 246.213 237.982 251.985 231.619Z" fill="white"/>
<path d="M145.523 315.541L171.417 174.501C171.86 172.176 173.066 170.073 174.838 168.537C176.61 167.001 178.842 166.123 181.169 166.047C181.379 166.043 181.588 166.043 181.797 166.047L199.437 166.691L201.335 166.762L210.138 167.084L212.037 167.15L217.7 167.358L331.883 171.528C332.055 171.538 332.232 171.538 332.404 171.533L357.991 170.989L367.46 170.79L367.762 170.785L374.751 170.634L435.649 169.346L451.794 169.001L459.756 168.835L461.663 168.793L470.741 168.603L472.644 168.561L481.932 168.366L483.835 168.324L494.039 168.106L495.639 168.073L504.74 167.879L506.178 167.851H506.388C508.804 167.861 511.139 168.739 512.979 170.331C514.82 171.923 516.049 174.126 516.447 176.551L539.866 322.906C540.103 324.389 540.021 325.906 539.626 327.353C539.23 328.8 538.529 330.143 537.573 331.287C536.616 332.432 535.427 333.351 534.087 333.981C532.746 334.612 531.287 334.938 529.811 334.938H395.321C393.342 334.944 391.416 335.59 389.822 336.784L387.272 338.706C385.515 340.022 383.391 340.735 381.209 340.741C355.234 333.767 327.925 333.767 301.951 340.741C300.611 340.745 299.285 340.478 298.048 339.956C296.81 339.435 295.687 338.669 294.743 337.702C293.129 336.061 290.974 335.084 288.694 334.962L155.006 327.796C153.556 327.719 152.139 327.327 150.85 326.648C149.561 325.968 148.43 325.017 147.532 323.856C146.634 322.696 145.99 321.354 145.644 319.92C145.297 318.485 145.256 316.993 145.523 315.541Z" fill="#CCCCCC"/>
<path d="M182.16 293.547C182.331 298.327 184.361 302.841 187.804 306.099C191.246 309.356 195.82 311.089 200.518 310.918C208.281 310.638 217.545 310.499 227.6 310.712C260.435 311.427 301.687 316.024 326.501 332.557C329.62 334.639 333.305 335.668 337.032 335.496C337.306 335.479 337.573 335.463 337.847 335.438C341.711 335.079 345.351 333.438 348.208 330.767C361.878 318.043 393.229 302.635 464.992 301.551C465.291 301.551 465.581 301.535 465.872 301.518C468.196 301.369 470.469 300.756 472.56 299.713C474.651 298.67 476.52 297.219 478.059 295.441C479.599 293.663 480.778 291.594 481.531 289.352C482.284 287.11 482.595 284.739 482.447 282.375L475.394 168.506L474.337 151.44L472.481 121.583C472.294 118.577 470.988 115.755 468.83 113.692C466.672 111.629 463.822 110.479 460.861 110.476H460.788L418.035 110.731C400.024 111.56 385.106 113.894 373.281 117.733C369.242 119.007 365.312 120.616 361.531 122.544C356.368 125.091 351.728 128.615 347.861 132.928C345.453 135.684 342.167 137.489 338.581 138.026C338.025 138.111 337.465 138.163 336.903 138.182C333.596 138.321 330.333 137.371 327.599 135.473C299.67 116.436 242.754 114.991 211.323 115.812C206.928 115.917 202.727 117.682 199.541 120.764C196.355 123.846 194.41 128.024 194.086 132.485L192.811 149.47L191.545 166.405L184.233 264.282L182.2 291.511C182.15 292.189 182.137 292.868 182.16 293.547Z" fill="#F6F6F6"/>
<path d="M454.356 150.545C428.592 142.183 399.849 144.397 375.441 156.177C368.477 159.521 361.9 163.642 355.831 168.464C354.114 169.835 351.671 167.383 353.406 165.997C375.824 148.309 403.992 139.906 432.25 142.477C440.068 143.189 447.786 144.766 455.268 147.181C457.362 147.861 456.467 151.23 454.356 150.545Z" fill="#3F3D56"/>
<path d="M312.585 169.817C288.631 157.009 259.947 154.216 233.903 161.487C226.478 163.554 219.302 166.457 212.509 170.14C210.563 171.196 208.828 168.186 210.778 167.128C235.6 153.654 265.397 150.552 292.503 158.063C300.064 160.162 307.379 163.094 314.316 166.805C316.27 167.85 314.539 170.862 312.585 169.817Z" fill="#3F3D56"/>
<path d="M312.585 193.072C288.631 180.264 259.947 177.471 233.903 184.741C226.478 186.809 219.302 189.712 212.509 193.395C210.563 194.451 208.828 191.441 210.778 190.383C235.6 176.909 265.397 173.807 292.503 181.318C300.064 183.417 307.379 186.348 314.316 190.06C316.27 191.105 314.539 194.117 312.585 193.072Z" fill="#3F3D56"/>
<path d="M209.939 215.079C209.921 214.78 209.992 214.482 210.143 214.224C210.294 213.966 210.517 213.761 210.784 213.634C230.669 203.041 253.215 198.745 275.52 201.298C275.66 201.31 275.789 201.332 275.94 201.344H275.946C276.083 201.356 276.219 201.377 276.354 201.406C289.621 202.959 302.491 206.995 314.315 213.309C314.573 213.465 314.786 213.687 314.935 213.952C315.083 214.218 315.16 214.518 315.16 214.823V258.205C315.156 258.472 315.092 258.734 314.973 258.972C314.855 259.21 314.684 259.418 314.475 259.579C314.266 259.74 314.023 259.851 313.766 259.903C313.508 259.955 313.243 259.946 312.989 259.878C312.463 259.725 311.937 259.577 311.4 259.434C299.446 256.143 287.175 254.19 274.804 253.611C274.541 253.6 274.278 253.588 274.004 253.577C263.928 253.137 253.834 253.506 243.815 254.681C243.606 254.693 243.396 254.716 243.189 254.749C242.674 254.806 242.148 254.869 241.633 254.937C241.426 254.96 241.23 254.983 241.04 255.017C239.037 255.273 237.05 255.563 235.058 255.877C232.182 256.343 229.306 256.863 226.43 257.436C226.251 257.47 226.066 257.516 225.881 257.55C221.265 258.484 216.671 259.565 212.099 260.761C211.845 260.827 211.578 260.835 211.321 260.782C211.063 260.728 210.821 260.617 210.612 260.454C210.402 260.292 210.232 260.084 210.114 259.845C209.996 259.606 209.932 259.343 209.928 259.076V215.148C209.926 215.124 209.93 215.101 209.939 215.079Z" fill="#3F3D56"/>
<path d="M272.832 203.664C274.088 203.038 275.528 202.909 276.872 203.303C277.466 203.529 278.01 203.873 278.472 204.315C278.934 204.757 279.305 205.288 279.564 205.877C280.029 207.007 280.328 208.2 280.449 209.419C280.52 209.898 280.525 210.503 280.051 210.727C279.879 210.79 279.694 210.805 279.514 210.768C279.335 210.732 279.169 210.647 279.033 210.522C278.789 210.276 278.587 209.99 278.438 209.676C277.615 208.374 276.484 207.305 275.147 206.566C273.811 205.827 272.313 205.442 270.792 205.447L269.527 205.961C270.523 205.048 271.634 204.276 272.832 203.664Z" fill="#FF6582"/>
<path d="M259.131 213.662C260.114 212.191 261.278 210.62 263.101 210.14C265.212 209.584 267.381 210.689 269.221 211.779C274.691 215.02 279.989 218.555 285.091 222.367L285.085 222.424L273.243 221.685C270.391 221.507 267.441 221.304 264.92 220.083C264.015 219.505 263.004 219.122 261.948 218.957C261.293 218.993 260.651 219.16 260.06 219.45C259.469 219.74 258.94 220.145 258.505 220.644C253.047 225.907 251.467 233.954 245.344 238.578C249.241 229.892 253.853 221.557 259.131 213.662Z" fill="white"/>
<path d="M274.002 253.576C274.277 253.588 274.54 253.599 274.802 253.611C276.711 252.913 278.666 252.297 280.643 251.762C281.923 251.413 283.226 251.099 284.529 250.832C286.004 250.507 287.49 250.251 288.976 250.03C291.805 249.611 294.656 249.367 297.514 249.297C297.535 249.3 297.557 249.297 297.578 249.291C297.599 249.284 297.618 249.273 297.634 249.258C297.65 249.243 297.663 249.225 297.672 249.205C297.681 249.184 297.686 249.162 297.686 249.14C297.686 249.118 297.681 249.096 297.672 249.076C297.663 249.056 297.65 249.038 297.634 249.023C297.618 249.008 297.599 248.997 297.578 248.99C297.557 248.983 297.535 248.981 297.514 248.983C297.148 248.983 296.782 248.995 296.428 249.018C293.564 249.126 290.709 249.409 287.878 249.867C286.404 250.111 284.929 250.402 283.466 250.727C282.14 251.03 280.815 251.367 279.511 251.739C277.649 252.274 275.812 252.886 274.002 253.576Z" fill="white"/>
<path d="M241.038 255.018C241.232 254.983 241.427 254.96 241.633 254.937C242.421 254.274 243.221 253.646 244.056 253.03C245.096 252.262 246.17 251.541 247.267 250.867C249.698 249.366 252.234 248.053 254.857 246.937C259.003 245.18 263.295 243.803 267.681 242.821C272.685 241.706 277.75 240.898 282.849 240.402C287.947 239.867 293.067 239.542 298.188 239.216C298.405 239.205 298.416 238.879 298.188 238.891C297.548 238.937 296.908 238.972 296.256 239.019C291.078 239.344 285.901 239.716 280.757 240.309C275.657 240.865 270.598 241.759 265.613 242.983C261.356 244.051 257.202 245.502 253.2 247.321C250.898 248.373 248.668 249.581 246.525 250.937C245.165 251.809 243.85 252.739 242.593 253.727C242.067 254.146 241.541 254.564 241.038 255.018Z" fill="white"/>
<path d="M243.187 254.75C243.395 254.716 243.605 254.693 243.816 254.681C244.056 254.483 244.308 254.297 244.559 254.111C246.318 252.83 248.154 251.661 250.057 250.611C251.784 249.656 253.558 248.791 255.372 248.018C259.516 246.257 263.808 244.879 268.196 243.902C273.2 242.787 278.265 241.979 283.364 241.484C288.461 240.949 293.582 240.623 298.702 240.298C298.92 240.274 298.92 239.96 298.702 239.972C298.051 240.019 297.411 240.053 296.771 240.1C291.593 240.425 286.415 240.798 281.272 241.391C276.172 241.947 271.113 242.84 266.127 244.065C261.87 245.13 257.716 246.581 253.714 248.402C252.206 249.1 250.731 249.855 249.291 250.681C247.155 251.874 245.114 253.234 243.187 254.75Z" fill="white"/>
<path d="M225.882 257.553C226.065 257.518 226.248 257.471 226.431 257.436C226.636 257.215 226.831 256.983 227.025 256.75C228.008 255.599 228.979 254.436 229.94 253.262C233.723 248.681 237.312 243.96 240.695 239.147C243.598 235.03 246.353 230.833 248.959 226.554C250.205 224.531 251.405 222.484 252.582 220.415C253.497 218.81 254.388 217.202 255.257 215.589C255.508 215.124 255.748 214.659 255.988 214.194C256.549 213.101 257.109 211.996 257.703 210.915C258.349 209.59 259.298 208.442 260.469 207.566C261.055 207.167 261.732 206.931 262.435 206.88C263.426 206.884 264.401 207.14 265.27 207.624C271.664 210.654 277.697 214.419 283.249 218.845C288.672 223.135 293.575 228.065 297.856 233.53C297.993 233.693 298.291 233.542 298.165 233.368C297.651 232.716 297.125 232.065 296.599 231.426C292.484 226.474 287.851 221.995 282.78 218.066C282.769 218.054 282.746 218.043 282.735 218.031C282.289 217.671 281.843 217.322 281.386 216.985C278.555 214.864 275.609 212.908 272.562 211.124C271.008 210.206 269.419 209.334 267.796 208.508C267.396 208.299 266.984 208.09 266.573 207.892C266.161 207.683 265.75 207.485 265.338 207.287C264.524 206.865 263.633 206.616 262.721 206.555C259.543 206.508 257.909 209.764 256.777 211.961C256.423 212.648 256.057 213.334 255.703 214.02C254.331 216.612 252.902 219.194 251.416 221.74C250.514 223.322 249.576 224.891 248.628 226.449C247.267 228.67 245.873 230.868 244.421 233.054C244.421 233.055 244.421 233.057 244.421 233.058C244.42 233.06 244.419 233.061 244.418 233.062C244.417 233.063 244.416 233.064 244.415 233.065C244.413 233.065 244.412 233.065 244.41 233.065C242.73 235.647 240.981 238.181 239.175 240.705C236.078 245.018 232.831 249.235 229.437 253.355C228.271 254.774 227.086 256.173 225.882 257.553Z" fill="white"/>
<path d="M266.661 206.2L266.977 206.341C267.701 205.097 268.716 204.054 269.932 203.305C271.148 202.557 272.527 202.125 273.946 202.049C278.625 201.711 282.736 204.883 283.11 209.12C283.261 210.865 282.765 212.604 281.718 213.995L282.012 214.171C283.102 212.723 283.619 210.912 283.461 209.095C283.072 204.682 278.791 201.379 273.918 201.731C272.44 201.81 271.004 202.26 269.738 203.039C268.472 203.819 267.415 204.905 266.661 206.2Z" fill="#FF6582"/>
<path d="M289.783 214.773C291.011 214.23 292.349 213.991 293.686 214.078C295.022 214.164 296.319 214.573 297.47 215.271C293.27 215.926 289.106 216.806 284.997 217.907C286.699 217.004 288.029 215.589 289.783 214.773Z" fill="white"/>
<path d="M297.494 215.267L297.956 215.607C297.8 215.488 297.637 215.376 297.47 215.271L297.494 215.267Z" fill="white"/>
<path d="M283.566 217.241C283.75 217.055 283.934 216.869 284.119 216.683C285.542 215.108 287.255 213.832 289.161 212.929C290.132 212.513 291.173 212.295 292.226 212.286C293.314 212.312 294.39 212.524 295.409 212.914C295.888 213.088 296.356 213.284 296.818 213.494C297.345 213.734 297.863 213.99 298.378 214.249C299.346 214.734 300.301 215.24 301.244 215.767C303.119 216.817 304.936 217.946 306.693 219.156C307.605 219.783 308.497 220.431 309.371 221.1C310.183 221.721 310.98 222.358 311.759 223.013C311.926 223.152 312.175 222.926 312.008 222.787C311.803 222.614 311.595 222.441 311.387 222.271C310.8 221.791 310.203 221.319 309.598 220.857C308.493 220.013 307.359 219.201 306.197 218.422C304.39 217.21 302.52 216.08 300.588 215.032C299.623 214.509 298.645 214.008 297.653 213.529C297.353 213.384 297.05 213.243 296.744 213.109C296.044 212.79 295.322 212.523 294.583 212.312C293.524 212.004 292.416 211.905 291.32 212.022C290.27 212.158 289.252 212.477 288.309 212.965C286.44 214.031 284.754 215.398 283.317 217.014C283.167 217.167 283.415 217.394 283.566 217.241Z" fill="white"/>
<path d="M454.356 173.8C428.592 165.438 399.849 167.652 375.441 179.432C368.477 182.776 361.9 186.897 355.831 191.719C354.114 193.09 351.671 190.638 353.406 189.252C375.824 171.564 403.992 163.161 432.25 165.732C440.068 166.444 447.786 168.021 455.268 170.436C457.362 171.116 456.467 174.485 454.356 173.8Z" fill="#3F3D56"/>
<path d="M454.356 197.055C428.592 188.693 399.849 190.906 375.441 202.687C368.477 206.03 361.9 210.151 355.831 214.974C354.114 216.344 351.671 213.893 353.406 212.507C375.824 194.819 403.992 186.416 432.25 188.987C440.068 189.698 447.786 191.276 455.268 193.691C457.362 194.371 456.467 197.74 454.356 197.055Z" fill="#3F3D56"/>
<path d="M454.356 220.309C428.592 211.947 399.849 214.161 375.441 225.942C368.477 229.285 361.9 233.406 355.831 238.229C354.114 239.599 351.671 237.147 353.406 235.762C375.824 218.073 403.992 209.67 432.25 212.242C440.068 212.953 447.786 214.531 455.268 216.946C457.362 217.625 456.467 220.995 454.356 220.309Z" fill="#3F3D56"/>
<path d="M454.356 243.564C428.592 235.202 399.849 237.416 375.441 249.196C368.477 252.54 361.9 256.661 355.831 261.483C354.114 262.854 351.671 260.402 353.406 259.017C375.824 241.328 403.992 232.925 432.25 235.496C440.068 236.208 447.786 237.786 455.268 240.201C457.362 240.88 456.467 244.249 454.356 243.564Z" fill="#3F3D56"/>
<path d="M454.356 266.819C428.592 258.457 399.849 260.671 375.441 272.451C368.477 275.795 361.9 279.916 355.831 284.738C354.114 286.109 351.671 283.657 353.406 282.272C375.824 264.583 403.992 256.18 432.25 258.751C440.068 259.463 447.786 261.04 455.268 263.456C457.362 264.135 456.467 267.504 454.356 266.819Z" fill="#3F3D56"/>
<path d="M361.531 122.544V178.308C361.531 179.416 363.436 180.344 366.002 180.598C366.024 180.597 366.046 180.6 366.067 180.607C366.494 180.639 366.946 180.664 367.406 180.664C368.821 180.69 370.229 180.457 371.562 179.975C371.683 179.925 371.804 179.868 371.925 179.819C372.038 179.753 372.159 179.695 372.272 179.63C372.91 179.244 373.281 178.792 373.281 178.308V117.733C369.242 119.007 365.312 120.616 361.531 122.544Z" fill="#FDF9B2"/>
<path d="M336.904 135.477H338.583V334.33H336.904V135.477Z" fill="#E6E6E6"/>
<path d="M154.352 271.606C153.161 271.495 152.009 271.12 150.977 270.507C149.944 269.895 149.056 269.059 148.375 268.06C147.695 267.06 147.238 265.921 147.036 264.722C146.835 263.524 146.895 262.295 147.211 261.122L112.368 244.576L91.3916 210.058L107.88 203.286L122.031 231.102L157.848 255.382C159.749 256.053 161.342 257.41 162.326 259.196C163.309 260.983 163.614 263.074 163.183 265.073C162.752 267.073 161.615 268.843 159.988 270.047C158.36 271.251 156.354 271.805 154.352 271.606Z" fill="#FFB6B6"/>
<path d="M78.452 176.99C78.452 176.99 74.3457 178.354 78.8526 186.456C82.4607 192.943 100.037 230.307 107.211 237.644C106.456 238.874 106.125 240.325 106.27 241.768C106.415 243.211 107.028 244.563 108.012 245.613L124.573 232.244C124.89 227.381 121.727 226.899 119.852 227.063L116.042 213.326L102.753 179.44L81.4029 175.951L78.452 176.99Z" fill="#FDF9B2"/>
<path d="M78.0942 113.477C77.3112 110.257 71.6307 107.879 81.3613 103.382C83.7229 102.291 83.625 98.5331 85.6226 96.8501C87.6202 95.1672 90.5457 94.3869 92.8673 95.5632C94.9406 96.6137 96.109 98.9909 96.3581 101.334C96.4774 103.691 96.2099 106.053 95.5662 108.321L95.7549 108.602C91.9004 111.602 88.0458 114.602 84.1912 117.603C82.7749 118.705 80.9232 119.86 79.3359 119.033C77.5389 118.096 78.579 115.471 78.0942 113.477Z" fill="#2F2E41"/>
</g>
<defs>
<clipPath id="clip0_176_4">
<rect width="540" height="420" fill="white" transform="matrix(-1 0 0 1 540 95)"/>
</clipPath>
</defs>
</svg>
