<svg width="587" height="639" viewBox="0 0 587 639" fill="none" xmlns="http://www.w3.org/2000/svg">
<path d="M55.7714 95.3303C95.8751 23.2687 190.867 4.45577 289.535 7.26577C388.245 10.2431 490.717 34.6449 527.965 107.107C565.172 179.402 537.283 299.727 511.887 398.338C486.658 497.085 463.922 574.118 415.985 610.323C368.175 646.496 294.998 641.704 229.057 602.687C163.157 563.838 104.408 490.962 67.4934 391.817C30.7061 292.64 15.7946 167.361 55.7714 95.3303Z" fill="#F4F0EA"/>
<g clip-path="url(#clip0_176_64)">
<path d="M215.14 410.591C213.442 406.374 213.255 401.666 214.614 397.319C215.973 392.972 218.788 389.272 222.55 386.887C223.803 386.098 222.657 384.053 221.398 384.846C217.083 387.516 213.862 391.732 212.346 396.696C210.829 401.66 211.123 407.028 213.17 411.784C213.746 413.178 215.711 411.975 215.14 410.591Z" fill="#3F3D56"/>
<path d="M215.793 413.77C212.715 408.122 213.44 401.363 214.546 395.255C215.702 388.88 217.216 382.406 215.906 375.922C215.312 372.773 213.905 369.851 211.835 367.465C210.838 366.343 209.228 368.018 210.222 369.136C214.092 373.491 214.54 379.808 213.913 385.418C213.172 392.035 211.074 398.483 211.335 405.207C211.403 408.618 212.256 411.962 213.823 414.963C213.981 415.222 214.23 415.407 214.517 415.48C214.805 415.553 215.108 415.507 215.364 415.352C215.62 415.197 215.807 414.946 215.887 414.651C215.967 414.355 215.933 414.039 215.793 413.77Z" fill="#3F3D56"/>
<path d="M232.308 431.805H193.522C192.615 431.804 191.745 431.43 191.103 430.766C190.462 430.101 190.101 429.2 190.1 428.26V416.457C190.103 413.424 191.267 410.516 193.338 408.372C195.408 406.227 198.214 405.021 201.142 405.017H206.831C207.133 405.017 207.423 404.892 207.637 404.671C207.851 404.449 207.971 404.149 207.972 403.836V398.32C207.972 397.798 208.173 397.298 208.529 396.928C208.886 396.559 209.369 396.351 209.873 396.351H215.957C216.461 396.351 216.944 396.559 217.301 396.928C217.657 397.298 217.858 397.798 217.858 398.32V403.836C217.858 404.149 217.979 404.449 218.193 404.671C218.407 404.892 218.696 405.017 218.999 405.017H224.688C227.615 405.021 230.422 406.227 232.492 408.372C234.562 410.516 235.727 413.424 235.73 416.457V428.26C235.729 429.2 235.368 430.101 234.727 430.766C234.085 431.43 233.215 431.804 232.308 431.805Z" fill="#CCCCCC"/>
<path d="M213.511 360.927C214.328 365.417 213.316 369.384 211.253 369.786C209.189 370.189 206.854 366.876 206.037 362.386C205.221 357.896 207.732 350.43 207.732 350.43C207.732 350.43 212.694 356.438 213.511 360.927Z" fill="#FDF9B2"/>
<path d="M229.172 381.816C226.586 385.517 223.111 387.483 221.41 386.207C219.709 384.931 220.426 380.897 223.012 377.196C225.598 373.495 232.558 370.252 232.558 370.252C232.558 370.252 231.758 378.115 229.172 381.816Z" fill="#FDF9B2"/>
<path d="M143.652 126.954C141.954 122.737 141.767 118.03 143.126 113.683C144.485 109.336 147.3 105.636 151.062 103.251C152.315 102.462 151.17 100.417 149.91 101.21C145.595 103.879 142.374 108.095 140.858 113.06C139.342 118.024 139.635 123.392 141.682 128.147C142.258 129.542 144.224 128.339 143.652 126.954Z" fill="#3F3D56"/>
<path d="M144.305 130.133C141.228 124.485 141.952 117.726 143.059 111.619C144.214 105.243 145.729 98.7697 144.418 92.2852C143.824 89.1369 142.417 86.2143 140.347 83.8283C139.35 82.7068 137.74 84.3816 138.734 85.4997C142.604 89.8543 143.053 96.1713 142.425 101.782C141.685 108.399 139.586 114.847 139.847 121.571C139.915 124.981 140.768 128.326 142.335 131.326C142.493 131.586 142.742 131.771 143.029 131.844C143.317 131.917 143.621 131.871 143.876 131.716C144.132 131.561 144.319 131.31 144.399 131.014C144.479 130.719 144.445 130.403 144.305 130.133Z" fill="#3F3D56"/>
<path d="M160.82 148.169H122.034C121.127 148.168 120.257 147.794 119.615 147.129C118.974 146.465 118.613 145.563 118.612 144.623V132.821C118.615 129.788 119.78 126.88 121.85 124.735C123.92 122.591 126.727 121.384 129.654 121.381H135.343C135.645 121.381 135.935 121.256 136.149 121.034C136.363 120.813 136.483 120.513 136.484 120.199V114.684C136.484 114.162 136.685 113.661 137.041 113.292C137.398 112.923 137.881 112.715 138.385 112.714H144.469C144.973 112.715 145.456 112.923 145.813 113.292C146.169 113.661 146.37 114.162 146.37 114.684V120.199C146.371 120.513 146.491 120.813 146.705 121.034C146.919 121.256 147.209 121.381 147.511 121.381H153.2C156.128 121.384 158.934 122.591 161.004 124.735C163.074 126.88 164.239 129.788 164.242 132.821V144.623C164.241 145.563 163.88 146.465 163.239 147.129C162.597 147.794 161.727 148.168 160.82 148.169Z" fill="#CCCCCC"/>
<path d="M142.023 77.291C142.84 81.7809 141.829 85.7472 139.765 86.1501C137.701 86.5529 135.366 83.2397 134.55 78.7498C133.733 74.2599 136.244 66.7937 136.244 66.7937C136.244 66.7937 141.206 72.8011 142.023 77.291Z" fill="#FDF9B2"/>
<path d="M157.685 98.1795C155.099 101.88 151.623 103.847 149.922 102.571C148.221 101.295 148.938 97.2605 151.524 93.5596C154.11 89.8586 161.071 86.6155 161.071 86.6155C161.071 86.6155 160.271 94.4785 157.685 98.1795Z" fill="#FDF9B2"/>
<path d="M66.5172 269.896H35.3364V281.714H66.5172V269.896Z" fill="#FDF9B2"/>
<path d="M66.5172 308.502H35.3364V320.32H66.5172V308.502Z" fill="#FDF9B2"/>
<path d="M256.644 522.805H23.9286C20.5009 522.801 17.2147 521.389 14.791 518.878C12.3672 516.367 11.0038 512.962 11 509.411V68.9871C11.0038 65.436 12.3672 62.0315 14.791 59.5205C17.2147 57.0095 20.5009 55.5971 23.9286 55.5931H256.644C260.071 55.5971 263.358 57.0096 265.781 59.5205C268.205 62.0315 269.569 65.436 269.572 68.9871V509.411C269.569 512.962 268.205 516.367 265.781 518.878C263.358 521.389 260.071 522.801 256.644 522.805ZM23.9286 57.1689C20.9042 57.1724 18.0046 58.4187 15.866 60.6343C13.7274 62.8498 12.5244 65.8538 12.521 68.9871V509.411C12.5244 512.545 13.7274 515.549 15.866 517.764C18.0046 519.98 20.9042 521.226 23.9286 521.23H256.644C259.668 521.226 262.568 519.98 264.706 517.764C266.845 515.549 268.048 512.545 268.051 509.411V68.9871C268.048 65.8538 266.845 62.8498 264.706 60.6343C262.568 58.4187 259.668 57.1724 256.644 57.1689H23.9286Z" fill="#3F3D56"/>
<path d="M268.812 146.556H11.7607V148.132H268.812V146.556Z" fill="#3F3D56"/>
<path d="M268.812 241.126H11.7607V242.702H268.812V241.126Z" fill="#3F3D56"/>
<path d="M268.812 335.696H11.7607V337.272H268.812V335.696Z" fill="#3F3D56"/>
<path d="M268.812 430.267H11.7607V431.843H268.812V430.267Z" fill="#3F3D56"/>
<path d="M64.2355 337.654H38.3782C37.3701 337.653 36.4036 337.237 35.6907 336.499C34.9778 335.76 34.5769 334.759 34.5757 333.714V257.29C34.5769 256.246 34.9778 255.244 35.6907 254.506C36.4036 253.767 37.3701 253.352 38.3782 253.351H64.2355C65.2436 253.352 66.2101 253.767 66.923 254.506C67.6358 255.244 68.0368 256.246 68.038 257.29V333.714C68.0368 334.759 67.6358 335.76 66.923 336.499C66.2101 337.237 65.2436 337.653 64.2355 337.654ZM38.3782 254.926C37.7733 254.927 37.1934 255.176 36.7657 255.62C36.338 256.063 36.0974 256.663 36.0967 257.29V333.714C36.0974 334.341 36.338 334.942 36.7657 335.385C37.1934 335.828 37.7733 336.077 38.3782 336.078H64.2355C64.8404 336.077 65.4203 335.828 65.848 335.385C66.2757 334.942 66.5163 334.341 66.517 333.714V257.29C66.5163 256.663 66.2757 256.063 65.848 255.62C65.4203 255.176 64.8404 254.927 64.2355 254.926H38.3782Z" fill="#3F3D56"/>
<path d="M114.429 269.896H83.248V281.714H114.429V269.896Z" fill="#FDF9B2"/>
<path d="M114.429 308.502H83.248V320.32H114.429V308.502Z" fill="#FDF9B2"/>
<path d="M112.148 337.654H86.2903C85.2822 337.653 84.3157 337.237 83.6028 336.499C82.89 335.76 82.489 334.759 82.4878 333.714V257.29C82.489 256.246 82.89 255.244 83.6028 254.506C84.3157 253.767 85.2822 253.352 86.2903 253.351H112.148C113.156 253.352 114.122 253.767 114.835 254.506C115.548 255.244 115.949 256.246 115.95 257.29V333.714C115.949 334.759 115.548 335.76 114.835 336.499C114.122 337.237 113.156 337.653 112.148 337.654ZM86.2903 254.926C85.6854 254.927 85.1055 255.176 84.6778 255.62C84.2501 256.063 84.0095 256.663 84.0088 257.29V333.714C84.0095 334.341 84.2501 334.942 84.6778 335.385C85.1055 335.828 85.6854 336.077 86.2903 336.078H112.148C112.752 336.077 113.332 335.828 113.76 335.385C114.188 334.942 114.428 334.341 114.429 333.714V257.29C114.428 256.663 114.188 256.063 113.76 255.62C113.332 255.176 112.752 254.927 112.148 254.926H86.2903Z" fill="#3F3D56"/>
<path d="M190.48 174.563H159.299V186.381H190.48V174.563Z" fill="#FDF9B2"/>
<path d="M190.48 213.169H159.299V224.987H190.48V213.169Z" fill="#FDF9B2"/>
<path d="M188.198 242.32H162.341C161.333 242.319 160.366 241.904 159.654 241.165C158.941 240.427 158.54 239.425 158.539 238.381V161.957C158.54 160.912 158.941 159.911 159.654 159.172C160.366 158.434 161.333 158.019 162.341 158.017H188.198C189.206 158.019 190.173 158.434 190.886 159.172C191.599 159.911 192 160.912 192.001 161.957V238.381C192 239.425 191.599 240.427 190.886 241.165C190.173 241.904 189.206 242.319 188.198 242.32ZM162.341 159.593C161.736 159.594 161.156 159.843 160.729 160.286C160.301 160.729 160.06 161.33 160.06 161.957V238.381C160.06 239.008 160.301 239.608 160.729 240.052C161.156 240.495 161.736 240.744 162.341 240.745H188.198C188.803 240.744 189.383 240.495 189.811 240.052C190.239 239.608 190.479 239.008 190.48 238.381V161.957C190.479 161.33 190.239 160.729 189.811 160.286C189.383 159.843 188.803 159.594 188.198 159.593H162.341Z" fill="#3F3D56"/>
<path d="M238.392 174.563H207.211V186.381H238.392V174.563Z" fill="#FDF9B2"/>
<path d="M238.392 213.169H207.211V224.987H238.392V213.169Z" fill="#FDF9B2"/>
<path d="M236.11 242.32H210.253C209.245 242.319 208.278 241.904 207.565 241.165C206.852 240.427 206.451 239.425 206.45 238.381V161.957C206.451 160.912 206.852 159.911 207.565 159.172C208.278 158.434 209.245 158.019 210.253 158.017H236.11C237.118 158.019 238.085 158.434 238.798 159.172C239.51 159.911 239.911 160.912 239.913 161.957V238.381C239.911 239.425 239.51 240.427 238.798 241.165C238.085 241.904 237.118 242.319 236.11 242.32ZM210.253 159.593C209.648 159.594 209.068 159.843 208.64 160.286C208.212 160.729 207.972 161.33 207.971 161.957V238.381C207.972 239.008 208.212 239.608 208.64 240.052C209.068 240.495 209.648 240.744 210.253 240.745H236.11C236.715 240.744 237.295 240.495 237.723 240.052C238.15 239.608 238.391 239.008 238.391 238.381V161.957C238.391 161.33 238.15 160.729 237.723 160.286C237.295 159.843 236.715 159.594 236.11 159.593H210.253Z" fill="#3F3D56"/>
<path d="M152.675 262.838L123.487 274.201L127.499 285.264L156.688 273.901L152.675 262.838Z" fill="#FDF9B2"/>
<path d="M165.783 298.977L136.595 310.34L140.607 321.403L169.796 310.04L165.783 298.977Z" fill="#FDF9B2"/>
<path d="M148.001 336.774C147.227 336.772 146.473 336.527 145.837 336.07C145.202 335.614 144.716 334.967 144.443 334.218L118.495 262.678C118.141 261.7 118.177 260.616 118.593 259.665C119.01 258.714 119.773 257.973 120.716 257.604L144.921 248.182C145.389 248 145.886 247.915 146.385 247.932C146.885 247.949 147.375 248.068 147.83 248.282C148.285 248.496 148.695 248.8 149.036 249.178C149.377 249.556 149.643 250 149.818 250.484L175.767 322.024C176.121 323.002 176.085 324.085 175.669 325.036C175.252 325.987 174.488 326.729 173.545 327.097L149.34 336.52C148.912 336.687 148.458 336.773 148.001 336.774ZM146.26 249.504C145.986 249.505 145.713 249.556 145.456 249.657L121.252 259.079C120.686 259.301 120.227 259.745 119.978 260.316C119.728 260.887 119.706 261.537 119.918 262.124L145.867 333.664C145.972 333.954 146.132 334.22 146.337 334.447C146.541 334.674 146.787 334.856 147.06 334.985C147.333 335.113 147.627 335.184 147.927 335.195C148.226 335.205 148.525 335.154 148.805 335.045L173.01 325.622C173.576 325.401 174.034 324.956 174.284 324.386C174.534 323.815 174.555 323.165 174.343 322.578L148.395 251.038C148.231 250.588 147.939 250.201 147.558 249.927C147.177 249.653 146.724 249.505 146.26 249.504Z" fill="#3F3D56"/>
<path d="M47.7247 169.081L18.5366 180.443L22.5493 191.506L51.7374 180.144L47.7247 169.081Z" fill="#FDF9B2"/>
<path d="M60.8326 205.22L31.6445 216.582L35.6572 227.645L64.8453 216.282L60.8326 205.22Z" fill="#FDF9B2"/>
<path d="M43.0506 243.016C42.2773 243.014 41.5228 242.769 40.8873 242.312C40.2518 241.856 39.7655 241.21 39.4931 240.46L13.5444 168.92C13.191 167.942 13.2264 166.859 13.6429 165.907C14.0594 164.956 14.823 164.215 15.7662 163.847L39.9712 154.424C40.4386 154.242 40.9361 154.157 41.4352 154.174C41.9343 154.192 42.4253 154.31 42.88 154.524C43.3348 154.738 43.7444 155.043 44.0856 155.42C44.4267 155.798 44.6927 156.242 44.8682 156.726L70.8169 228.266C71.1703 229.244 71.1349 230.328 70.7184 231.279C70.3019 232.23 69.5383 232.971 68.5951 233.339L44.3901 242.762C43.962 242.93 43.5082 243.016 43.0506 243.016ZM41.31 155.747C41.0354 155.747 40.7631 155.799 40.5062 155.899L16.3014 165.322C15.7354 165.543 15.2772 165.988 15.0273 166.558C14.7774 167.129 14.7561 167.779 14.9682 168.366L40.9169 239.906C41.0223 240.197 41.1818 240.463 41.3865 240.689C41.5912 240.916 41.837 241.099 42.1099 241.227C42.3827 241.355 42.6773 241.427 42.9767 241.437C43.2762 241.447 43.5747 241.396 43.8551 241.287L68.0599 231.864C68.6259 231.643 69.0841 231.199 69.334 230.628C69.5839 230.057 69.6052 229.407 69.3931 228.82L43.4444 157.28C43.2809 156.83 42.9891 156.443 42.6079 156.169C42.2267 155.895 41.774 155.748 41.31 155.747Z" fill="#3F3D56"/>
<path d="M487.838 252.563C500.858 252.563 511.414 241.628 511.414 228.139C511.414 214.649 500.858 203.714 487.838 203.714C474.817 203.714 464.262 214.649 464.262 228.139C464.262 241.628 474.817 252.563 487.838 252.563Z" fill="#2F2E41"/>
<path d="M383.101 339.601C384.215 340.048 385.41 340.236 386.601 340.153C387.793 340.07 388.953 339.717 389.998 339.12C391.044 338.522 391.951 337.694 392.655 336.694C393.358 335.694 393.841 334.547 394.071 333.332L458.894 290.961L447.095 277.199L387.058 323.204C385.064 322.941 383.045 323.444 381.385 324.62C379.724 325.795 378.538 327.561 378.05 329.582C377.562 331.603 377.807 333.739 378.738 335.585C379.669 337.432 381.221 338.861 383.101 339.601Z" fill="#FFB8B8"/>
<path d="M445.361 302.226C444.787 302.227 444.222 302.079 443.718 301.795C443.214 301.511 442.787 301.1 442.476 300.6L434.969 288.515C434.496 287.752 434.322 286.83 434.485 285.939C434.647 285.048 435.133 284.255 435.843 283.723L460.962 264.914C462.181 264.001 463.564 263.351 465.03 263.002C466.496 262.653 468.014 262.612 469.495 262.881C470.977 263.15 472.391 263.725 473.654 264.57C474.917 265.416 476.004 266.515 476.85 267.804C477.696 269.092 478.284 270.543 478.579 272.071C478.874 273.598 478.871 275.172 478.569 276.698C478.266 278.225 477.672 279.673 476.82 280.957C475.968 282.241 474.876 283.335 473.609 284.174L447.197 301.669C446.649 302.033 446.012 302.227 445.361 302.226Z" fill="#2F2E41"/>
<path d="M456.576 513.232L447.253 513.232L442.817 475.974L456.579 475.975L456.576 513.232Z" fill="#FFB8B8"/>
<path d="M440.593 510.472H458.574V522.201H429.271C429.271 520.661 429.564 519.136 430.133 517.713C430.702 516.29 431.536 514.997 432.587 513.907C433.639 512.818 434.887 511.954 436.26 511.365C437.634 510.775 439.106 510.472 440.593 510.472Z" fill="#2F2E41"/>
<path d="M500.104 506.011L491.127 508.622L477.135 473.994L490.384 470.14L500.104 506.011Z" fill="#FFB8B8"/>
<path d="M483.995 507.829L501.307 502.794L504.367 514.087L476.155 522.292C475.753 520.809 475.637 519.258 475.813 517.729C475.99 516.2 476.455 514.721 477.184 513.378C477.912 512.035 478.888 510.854 480.057 509.902C481.225 508.95 482.563 508.245 483.995 507.829Z" fill="#2F2E41"/>
<path d="M525.224 448.834L489.027 404.578L510.992 376.968C511.314 376.563 511.719 376.237 512.177 376.014C512.636 375.791 513.136 375.676 513.643 375.677C514.149 375.679 514.649 375.797 515.106 376.023C515.563 376.249 515.966 376.577 516.286 376.984L549.521 419.241L525.224 448.834Z" fill="#FDF9B2"/>
<path d="M490.488 404.907C491.021 403.912 491.683 402.997 492.455 402.187L513.42 380.167C514.241 379.3 515.348 378.785 516.519 378.726C518.915 378.608 522.844 378.859 523.939 381.582L495.634 405.574L490.488 404.907Z" fill="#F2F2F2"/>
<path d="M526.482 458.198C524.868 458.149 523.299 457.634 521.951 456.712L521.851 456.605L488.7 404.078L494.201 403.527L523.683 379.703C524.055 379.402 524.484 379.184 524.941 379.063C525.398 378.942 525.875 378.921 526.341 379C526.806 379.079 527.252 379.257 527.648 379.522C528.044 379.788 528.383 380.136 528.643 380.544L560.871 431.077C561.365 431.857 561.544 432.808 561.367 433.723C561.191 434.639 560.675 435.446 559.929 435.97L528.744 457.755C528.024 458.052 527.257 458.202 526.482 458.198Z" fill="#FDF9B2"/>
<path d="M514.757 422.267C514.446 422.267 514.138 422.189 513.863 422.037C513.587 421.886 513.352 421.666 513.178 421.398L509.369 415.538C509.088 415.104 508.985 414.573 509.081 414.06C509.178 413.547 509.467 413.095 509.885 412.803L529.423 399.176C529.841 398.885 530.354 398.778 530.849 398.878C531.344 398.978 531.78 399.277 532.062 399.71L535.87 405.571C536.151 406.004 536.255 406.536 536.158 407.048C536.062 407.561 535.773 408.013 535.355 408.305L515.817 421.932C515.504 422.15 515.135 422.267 514.757 422.267Z" fill="#3F3D56"/>
<path d="M441.342 507.598C440.302 507.594 439.301 507.187 438.536 506.458C437.771 505.728 437.296 504.729 437.206 503.655C435.547 484.128 427.223 385.71 426.31 365.834C425.295 343.751 443.035 308.815 443.214 308.465L443.337 308.224L452.106 309.359V310.416L460.452 311.433L476.604 313.053L481.228 371.606L483.272 411.317L502.482 492.424C502.7 493.322 502.568 494.273 502.114 495.071C501.661 495.87 500.923 496.451 500.059 496.69L483.34 501.413C482.471 501.655 481.545 501.534 480.761 501.076C479.978 500.617 479.398 499.859 479.148 498.963L463.408 441.679C463.332 441.402 463.16 441.163 462.926 441.008C462.692 440.852 462.41 440.791 462.136 440.835C461.861 440.879 461.611 441.026 461.433 441.248C461.255 441.47 461.162 441.751 461.17 442.039L462.835 497.896C462.844 498.47 462.739 499.039 462.527 499.569C462.316 500.099 462.002 500.579 461.605 500.979C457.773 504.707 447.647 506.698 441.953 507.552C441.751 507.583 441.547 507.598 441.342 507.598Z" fill="#2F2E41"/>
<path d="M491.578 261.539C488.926 258.674 471.445 262.611 467.564 266.832L440.996 311.825L484.936 320.294L494.644 263.127L491.578 261.539Z" fill="#FDF9B2"/>
<path d="M480.061 375.85C479.115 375.85 478.175 375.688 477.28 375.37C474.727 374.462 471.598 373.513 467.981 372.55C452.137 368.329 446.542 354.815 451.354 332.383L451.476 331.814C455.994 310.536 464.511 290.387 476.54 272.516L478.403 269.743C480.652 266.398 483.801 263.811 487.458 262.304C491.115 260.797 495.118 260.437 498.971 261.269C506.1 262.792 509.928 265 510.348 267.83C511.173 273.385 495.249 340.527 488.364 369.137C487.903 371.056 486.835 372.76 485.33 373.976C483.825 375.193 481.97 375.852 480.061 375.85Z" fill="#2F2E41"/>
<path d="M425.479 367.23C425.065 367.23 424.653 367.164 424.259 367.033L419.123 365.331C418.592 365.155 418.103 364.866 417.686 364.483C417.269 364.099 416.934 363.63 416.702 363.105C416.47 362.58 416.346 362.01 416.339 361.433C416.331 360.855 416.44 360.283 416.659 359.751L443.909 293.488C449.13 280.847 458.259 270.363 469.86 263.685C470.028 263.589 470.214 263.53 470.405 263.511C470.596 263.493 470.789 263.515 470.971 263.577C471.139 263.632 471.294 263.723 471.425 263.844C471.557 263.965 471.663 264.114 471.736 264.279C474.941 271.584 457.497 306.15 443.481 333.924C436.304 348.146 430.106 360.429 429.4 363.932C429.212 364.864 428.719 365.702 428.005 366.302C427.291 366.903 426.399 367.231 425.479 367.23Z" fill="#2F2E41"/>
<path d="M509.786 382.329C510.743 381.589 511.532 380.641 512.097 379.55C512.662 378.46 512.989 377.255 513.056 376.02C513.123 374.784 512.927 373.549 512.483 372.4C512.039 371.251 511.358 370.217 510.486 369.371L510.27 289.966L492.748 293.011L498.479 370.146C497.203 371.757 496.543 373.796 496.622 375.878C496.701 377.96 497.515 379.939 498.909 381.441C500.302 382.942 502.179 383.862 504.184 384.026C506.189 384.19 508.182 383.586 509.786 382.329Z" fill="#FFB8B8"/>
<path d="M495.518 309.666C494.65 309.665 493.814 309.323 493.18 308.708C492.546 308.093 492.162 307.252 492.105 306.354L490.066 274.314C489.874 271.231 490.869 268.195 492.835 265.872C494.8 263.548 497.574 262.127 500.55 261.92C502.077 261.816 503.609 262.036 505.052 262.567C506.495 263.097 507.818 263.928 508.94 265.006C510.062 266.085 510.96 267.39 511.578 268.841C512.196 270.292 512.522 271.858 512.536 273.444L512.813 305.92C512.819 306.858 512.467 307.761 511.834 308.431C511.2 309.101 510.336 309.484 509.431 309.497L495.56 309.666L495.518 309.666Z" fill="#2F2E41"/>
<path d="M482.982 253.805C493.298 253.805 501.66 245.141 501.66 234.454C501.66 223.767 493.298 215.103 482.982 215.103C472.666 215.103 464.303 223.767 464.303 234.454C464.303 245.141 472.666 253.805 482.982 253.805Z" fill="#FFB8B8"/>
<path d="M498.512 247.995C499.905 243.402 501.184 237.986 498.427 234.11C496.441 231.318 492.874 230.237 489.529 230.082C486.184 229.927 482.829 230.515 479.491 230.24C476.153 229.965 472.625 228.6 470.929 225.609C468.731 221.73 470.593 216.387 474.128 213.775C477.663 211.163 482.332 210.798 486.634 211.406C492.078 212.076 497.196 214.448 501.306 218.206C505.305 222.029 507.912 227.54 507.796 233.177C507.679 238.813 504.628 244.426 499.765 246.957" fill="#2F2E41"/>
<path d="M493.855 205.711C489.383 204.284 487.321 198.159 489.321 193.777C491.32 189.395 496.432 187.1 501.074 187.71C505.715 188.321 509.805 191.406 512.627 195.273C515.448 199.14 517.149 203.75 518.567 208.369C519.986 212.988 521.165 217.707 523.103 222.12C526.177 228.899 530.919 234.721 536.853 239C542.787 243.28 549.703 245.866 556.907 246.499C560.047 246.734 563.306 246.565 566.168 245.206C569.029 243.846 571.429 241.104 571.75 237.86C573.379 249.386 566.907 261.635 556.657 266.424C546.407 271.214 533.26 268.133 525.999 259.239C518.902 250.548 517.803 238.277 517.974 226.895C518.021 223.774 518.132 220.593 517.299 217.593C516.467 214.593 514.497 211.74 511.628 210.788C509.313 210.019 506.805 210.573 504.432 211.118C502.058 211.663 499.538 212.188 497.24 211.366C494.942 210.544 493.092 207.837 494.018 205.508" fill="#2F2E41"/>
<path d="M567.754 523.593H366.98C366.779 523.593 366.585 523.51 366.442 523.362C366.3 523.215 366.22 523.014 366.22 522.805C366.22 522.596 366.3 522.396 366.442 522.248C366.585 522.1 366.779 522.017 366.98 522.017H567.754C567.956 522.017 568.149 522.1 568.292 522.248C568.434 522.396 568.515 522.596 568.515 522.805C568.515 523.014 568.434 523.215 568.292 523.362C568.149 523.51 567.956 523.593 567.754 523.593Z" fill="#CCCCCC"/>
</g>
<defs>
<clipPath id="clip0_176_64">
<rect width="561" height="468" fill="white" transform="translate(11 55.5931)"/>
</clipPath>
</defs>
</svg>
