<svg width="528" height="457" viewBox="0 0 528 457" fill="none" xmlns="http://www.w3.org/2000/svg">
<g clip-path="url(#clip0_241_101)">
<path d="M32.6992 454.883H159.92V450.869C159.92 447.384 158.573 444.041 156.176 441.577C153.78 439.112 150.529 437.728 147.139 437.728H45.4799C42.0903 437.728 38.8394 439.112 36.4426 441.577C34.0457 444.041 32.6992 447.384 32.6992 450.869V454.883Z" fill="#E6E6E6"/>
<path d="M99.2866 438.529L95.4178 436.927C135.898 333.613 131.999 203.273 97.7794 91.4649C93.7145 78.5103 93.4214 64.6165 96.9359 51.4928C100.45 38.3692 107.619 26.5881 117.561 17.5991C137.423 -0.625315 164.805 -5.06494 189.027 6.0116C212.935 16.9468 216.23 35.9942 216.23 54.949H212.059C212.059 34.7157 207.854 19.3168 187.331 9.9303C164.63 -0.450452 138.961 3.71327 120.338 20.7995C111.001 29.2421 104.267 40.3073 100.966 52.6335C97.6648 64.9598 97.9402 78.0095 101.758 90.1769C136.372 203.276 140.044 334.511 99.2866 438.529Z" fill="#E6E6E6"/>
<path d="M213.102 118.209C205.039 118.209 198.503 111.489 198.503 103.198C198.503 94.9081 205.039 88.1875 213.102 88.1875C221.165 88.1875 227.701 94.9081 227.701 103.198C227.701 111.489 221.165 118.209 213.102 118.209Z" fill="#E6E6E6"/>
<path d="M235.586 129.367V100.925H231.284V129.367C230.051 129.88 229.029 130.818 228.394 132.021C227.759 133.224 227.551 134.616 227.806 135.959C228.06 137.303 228.76 138.513 229.788 139.384C230.815 140.254 232.104 140.73 233.435 140.73C234.766 140.73 236.055 140.254 237.082 139.384C238.109 138.513 238.81 137.303 239.064 135.959C239.319 134.616 239.11 133.224 238.476 132.021C237.841 130.818 236.819 129.88 235.586 129.367Z" fill="#E6E6E6"/>
<path d="M256.378 79.0734C256.371 72.5353 253.841 66.267 249.345 61.6438C244.849 57.0206 238.753 54.42 232.394 54.4126H192.768C186.407 54.4126 180.306 57.0108 175.808 61.6356C171.31 66.2604 168.783 72.533 168.783 79.0734C168.783 85.6139 171.31 91.8865 175.808 96.5113C180.306 101.136 186.407 103.734 192.768 103.734H232.394C238.753 103.727 244.849 101.126 249.345 96.5031C253.841 91.8799 256.371 85.6116 256.378 79.0734Z" fill="#FDF9B2"/>
<path d="M312.209 231.789C308.231 179.452 287.889 154.516 300.914 138.878C313.391 123.899 348.536 126.993 371.106 141.367C431.984 180.135 454.287 334.652 375.947 410.146C301.503 481.884 160.419 458.907 129.065 400.191C121.749 386.491 115.937 362.473 126.644 347.928C153.227 311.817 249.875 377.224 292.846 336.314C318.312 312.07 314.393 260.512 312.209 231.789Z" fill="#3F3D56"/>
<path d="M265.673 205.788C267.152 206.487 268.307 207.752 268.892 209.313C269.478 210.875 269.447 212.61 268.808 214.149C268.673 214.459 268.513 214.758 268.331 215.042L281.397 232.981L274.877 243.001L259.561 216.437C258.476 215.566 257.702 214.351 257.359 212.981C257.016 211.611 257.124 210.163 257.666 208.862C257.981 208.125 258.434 207.459 259 206.902C259.565 206.345 260.232 205.908 260.962 205.616C261.691 205.324 262.47 205.183 263.253 205.2C264.036 205.218 264.808 205.394 265.524 205.718C265.574 205.74 265.624 205.764 265.673 205.788Z" fill="#FFB6B6"/>
<path d="M265.685 236.717C264.829 237.497 267.201 238.46 269.71 236.941C270.429 236.502 270.735 236.319 270.816 236.435C271.017 236.726 269.84 238.866 270.154 243.619C270.348 246.457 274.93 251.791 280.134 256.992C287.17 264.027 295.351 270.813 295.351 270.813L298.223 268.448L328.341 243.619L333.424 236.386C332.958 233.529 332.259 230.718 331.334 227.982C330.06 224.195 328.545 220.499 326.8 216.916C325.864 214.966 324.904 213.108 323.984 211.399L307.848 229.683L294.326 244.997C294.326 244.997 290.389 238.476 287.339 236.701C286.95 236.446 286.508 236.289 286.048 236.245C282.966 236.095 282.781 234.37 286.355 230.612C289.929 226.854 285.419 230.363 282.24 229.351C279.061 228.339 282.24 229.351 281.57 226.821C280.901 224.291 271.986 219.214 271.986 219.214L271.614 219.554L264.878 225.668L262.949 227.418C262.949 227.418 265.055 233.358 265.636 234.61C266.217 235.863 266.532 235.929 265.685 236.717Z" fill="#FDF9B2"/>
<path d="M88.0931 351.957L87.7648 342.807L121.934 337.15L122.419 350.654L88.0931 351.957Z" fill="#FFB6B6"/>
<path d="M94.2951 354.712L94.6191 340.061L88.5277 340.292L78.6937 326.748C78.2081 326.079 77.5272 325.587 76.7504 325.344C75.9736 325.101 75.1417 325.12 74.376 325.398C73.6104 325.675 72.9511 326.197 72.4944 326.888C72.0377 327.578 71.8075 328.4 71.8375 329.234L72.462 346.638L78.595 349.41L72.6117 350.809L72.8472 357.371L94.2951 354.712Z" fill="#2F2E41"/>
<path d="M280.402 355.52L172.175 358.341C172.175 358.341 125.439 361.117 114.474 353.782L102.91 352.281L102.283 334.817C102.283 334.817 109.354 334.87 113.42 332.923C117.485 330.975 114.66 328.592 118.536 330.935C122.412 333.278 122.003 333.56 124.999 332.483C127.996 331.406 265.424 309.868 265.424 309.868L280.402 355.52Z" fill="#2F2E41"/>
<path d="M137.787 347.941L131.494 341.463L152.801 313.42L162.09 322.982L137.787 347.941Z" fill="#FFB6B6"/>
<path d="M144.156 342.305L134.703 331.338L130.39 335.767L114.222 332.715C113.423 332.564 112.599 332.68 111.869 333.045C111.139 333.41 110.541 334.005 110.163 334.744C109.786 335.483 109.648 336.327 109.769 337.153C109.891 337.978 110.266 338.742 110.84 339.332L122.81 351.654L129.139 349.397L125.679 354.607L130.192 359.253L144.156 342.305Z" fill="#2F2E41"/>
<path d="M323.101 294.575L322.025 320.291C320.758 350.565 288.333 368.888 263.19 353.081C262.727 352.79 262.262 352.488 261.795 352.176C261.795 352.176 252.263 349.544 252.553 345.376C252.842 341.208 250.513 339.179 248.453 340.316C246.392 341.453 219.411 302.081 219.411 302.081C219.411 302.081 163.353 330.833 150.986 337.601C150.986 337.601 139.359 318.908 140.202 319.104C141.045 319.3 209.552 269.998 209.552 269.998C209.552 269.998 220.713 258.384 234.557 266.052C234.846 267.179 234.599 267.218 234.599 267.218L280.332 305.535L286.794 292.916L323.101 294.575Z" fill="#2F2E41"/>
<path d="M279.981 262.426C280.068 263.614 280.232 264.794 280.473 265.96C280.802 267.647 281.334 269.285 282.054 270.838C282.054 270.838 282.054 272.571 285.282 278.378C288.509 284.185 284.475 281.697 282.054 286.01C279.634 290.316 282.054 288.333 284.741 291.104C285.515 291.91 286.064 292.915 286.332 294.013C286.6 295.112 286.577 296.264 286.266 297.351C286.266 297.351 320.926 297.375 327.381 294.887C333.835 292.398 335.303 278.378 329.519 276.993C323.742 275.608 331.269 274.231 334.666 271.037C338.063 267.843 331.269 262.617 331.269 262.617C331.269 262.617 334.069 257.648 333.835 240.965C333.802 239.431 333.665 237.9 333.424 236.386C332.958 233.529 332.259 230.718 331.334 227.982C330.06 224.196 328.545 220.499 326.8 216.916C325.864 214.966 324.904 213.108 323.984 211.399C323.839 211.134 323.702 210.877 323.556 210.619C321.806 207.434 320.208 204.829 319.151 203.162C318.336 201.868 317.844 201.138 317.844 201.138L311.971 190.635L292.365 200.084L293.479 215.539L290.098 227.194L288.541 232.561L287.339 236.701L285.483 243.114C285.483 243.114 285.992 243.138 285.387 243.993C282.6 247.802 280.793 252.274 280.134 256.992C279.902 258.793 279.851 260.614 279.981 262.426Z" fill="#FDF9B2"/>
<path d="M223.363 264.091L223.731 263.969L270.655 248.432L253.364 190.104C253.019 188.943 252.423 187.877 251.62 186.986C250.817 186.096 249.827 185.405 248.727 184.965C247.626 184.526 246.442 184.348 245.265 184.447C244.088 184.546 242.949 184.918 241.932 185.536L211.945 203.752C209.571 205.193 207.765 207.445 206.843 210.115C205.92 212.786 205.94 215.705 206.898 218.362L223.363 264.091Z" fill="#2F2E41"/>
<path d="M223.172 267.799L270.475 252.138L253.183 193.809C252.839 192.648 252.243 191.582 251.439 190.692C250.636 189.802 249.647 189.111 248.546 188.671C247.445 188.231 246.262 188.054 245.085 188.153C243.908 188.251 242.768 188.624 241.751 189.241L210.333 205.37C205.613 208.237 205.723 215.656 207.915 221.744L223.172 267.799Z" fill="#FDF9B2"/>
<path d="M227.908 272.021C228.998 272.653 230.203 273.045 231.447 273.172C232.692 273.3 233.948 273.159 235.137 272.761L265.372 262.749C267.692 261.97 269.623 260.289 270.754 258.065C271.884 255.842 272.124 253.252 271.423 250.848L256.264 199.716C255.962 198.695 255.463 197.746 254.799 196.925C254.135 196.104 253.318 195.428 252.396 194.936C251.474 194.444 250.466 194.146 249.431 194.06C248.395 193.974 247.354 194.101 246.367 194.434L215.035 205.012C213.542 205.516 212.163 206.323 210.978 207.384C209.793 208.445 208.827 209.74 208.137 211.191C207.447 212.643 207.047 214.222 206.961 215.835C206.875 217.448 207.103 219.063 207.634 220.584L223.841 267.042C224.569 269.152 226.013 270.92 227.908 272.021Z" fill="#3F3D56"/>
<path d="M293.474 190.815C281.514 190.815 271.818 180.846 271.818 168.548C271.818 156.251 281.514 146.282 293.474 146.282C305.433 146.282 315.129 156.251 315.129 168.548C315.129 180.846 305.433 190.815 293.474 190.815Z" fill="#FFB6B6"/>
<path d="M366.701 191.15C364.714 195.111 361.456 198.243 357.479 200.015C355.892 200.758 354.223 201.301 352.509 201.632C352.024 199.657 351.248 197.769 350.209 196.034C350.555 197.989 350.555 199.993 350.209 201.947C347.597 202.167 344.97 201.832 342.49 200.962C340.054 200.111 337.845 198.687 336.038 196.805C334.231 194.922 332.875 192.632 332.079 190.117C330.354 184.215 332.212 177.911 332.358 171.751C332.509 165.589 329.663 158.22 323.715 157.458C319.185 156.876 319.745 157.328 316.49 160.618C321.043 165.819 309.943 188.853 303.986 187.836C300.619 187.26 298.141 184.511 297.475 184.606C294.064 193.194 304.323 205.374 296.187 209.373L296.79 208.551C301.049 201.317 288.447 189.098 292.706 181.863C293.893 179.839 295.128 177.466 294.393 175.228C293.696 173.099 290.165 172.425 289.42 174.363C290.631 169.922 287.25 164.71 282.76 164.257C278.771 163.852 279.001 165.021 275.197 166.088C274.711 164.403 274.011 162.792 273.114 161.296C273.418 163.003 273.455 164.748 273.225 166.467C271.854 166.635 270.466 166.333 269.278 165.608C265.766 163.443 265.661 157.855 268.074 154.453C270.491 151.051 274.54 149.372 278.446 148.101C278.482 139.607 300.71 135.541 304.798 143.438C305.219 137.044 312.347 132.736 318.488 133.823C324.629 134.909 329.473 139.972 332.427 145.615C335.38 151.253 336.846 157.567 339.007 163.573C341.169 169.579 344.26 175.568 349.436 179.131C354.612 182.69 362.304 183.014 366.626 178.401C367.612 180.37 368.132 182.551 368.145 184.766C368.158 186.981 367.664 189.168 366.701 191.15Z" fill="#2F2E41"/>
<path d="M344.482 292.972C344.034 292.604 343.548 292.287 343.032 292.028C334.744 287.787 308.967 276.777 288.812 277.228C250.033 278.098 200.68 322.103 212.166 351.655C220.906 374.141 264.356 386.934 296.074 376.702C340.507 362.368 358.046 304.092 344.482 292.972Z" fill="#3F3D56"/>
<path d="M505.473 454.968C518.145 452.51 529.361 393.811 504.43 364.902C495.888 354.998 485.234 350.687 471.061 346.675C389.487 323.583 327.269 345.59 318.908 350.964C310.565 356.325 295.94 437.101 314.642 448.535C325.164 454.968 346.02 458.185 356.354 450.679C371.558 439.635 346.037 410.989 357.396 391.708C370.287 369.827 438.166 362.456 472.198 384.202C508.506 407.402 433.615 468.907 505.473 454.968Z" fill="#F2F2F2"/>
<path d="M420.752 355.168H469.162C481.113 343.392 489.657 332.042 482.816 322.622C482.816 319.914 481.77 317.317 479.908 315.402C478.045 313.487 475.52 312.411 472.886 312.411H417.028C414.394 312.411 411.868 313.487 410.006 315.402C408.144 317.317 407.097 319.914 407.097 322.622C404.493 333.356 409.146 344.206 420.752 355.168Z" fill="#CCCCCC"/>
<path d="M429.446 299.557C429.906 299.579 430.36 299.455 430.749 299.202C431.137 298.949 431.441 298.58 431.618 298.144C431.796 297.707 431.838 297.226 431.74 296.764C431.643 296.302 431.409 295.882 431.071 295.561L430.918 294.933C430.938 294.882 430.958 294.832 430.979 294.782C431.442 293.658 432.217 292.7 433.208 292.028C434.198 291.356 435.36 290.999 436.547 291.004C437.734 291.009 438.893 291.374 439.879 292.053C440.864 292.733 441.633 293.697 442.087 294.824C443.904 299.324 446.218 303.831 446.787 308.588C447.038 310.691 446.932 312.822 446.474 314.888C450.742 305.317 452.958 294.914 452.972 284.385C452.973 281.743 452.83 279.103 452.544 276.477C452.308 274.324 451.98 272.187 451.561 270.065C449.274 258.552 444.363 247.761 437.232 238.578C433.781 236.641 430.99 233.664 429.235 230.046C428.599 228.746 428.15 227.358 427.901 225.925C428.29 225.977 429.369 219.881 429.075 219.507C429.618 218.66 430.589 218.239 431.182 217.413C434.129 213.305 438.189 214.022 440.309 219.605C444.837 221.955 444.881 225.852 442.102 229.6C440.335 231.985 440.092 235.211 438.541 237.764C438.7 237.974 438.866 238.177 439.026 238.387C441.943 242.244 444.485 246.385 446.616 250.751C446.098 245.86 446.717 240.912 448.421 236.314C450.149 232.029 453.387 228.42 456.238 224.715C459.663 220.266 466.687 222.207 467.29 227.848C467.296 227.903 467.302 227.957 467.307 228.012C466.884 228.257 466.469 228.518 466.063 228.794C465.554 229.144 465.159 229.644 464.93 230.229C464.702 230.814 464.651 231.456 464.783 232.071C464.916 232.687 465.226 233.246 465.673 233.677C466.121 234.108 466.684 234.39 467.29 234.486L467.352 234.496C467.201 236.065 466.934 237.621 466.554 239.149C470.212 253.694 462.315 258.992 451.038 259.23C450.789 259.362 450.546 259.493 450.297 259.618C452.439 265.857 453.782 272.356 454.293 278.951C454.582 282.842 454.565 286.751 454.242 290.639L454.261 290.501C455.078 286.178 457.321 282.276 460.612 279.456C465.499 275.328 472.404 273.808 477.676 270.49C478.236 270.12 478.888 269.923 479.554 269.921C480.22 269.92 480.872 270.114 481.434 270.481C481.996 270.848 482.445 271.373 482.726 271.993C483.008 272.614 483.111 273.304 483.023 273.983C483.016 274.031 483.009 274.079 483.002 274.128C482.216 274.457 481.451 274.836 480.711 275.263C480.287 275.509 479.872 275.769 479.467 276.045C478.957 276.395 478.562 276.895 478.334 277.48C478.106 278.065 478.054 278.707 478.187 279.322C478.319 279.938 478.63 280.497 479.077 280.928C479.524 281.359 480.087 281.641 480.693 281.737L480.755 281.747C480.8 281.753 480.838 281.76 480.883 281.766C479.54 285.063 477.655 288.098 475.311 290.738C473.024 303.435 463.2 304.64 452.691 300.942H452.685C451.532 306.094 449.861 311.109 447.7 315.905H429.892C429.829 315.702 429.771 315.492 429.714 315.288C431.362 315.395 433.017 315.294 434.641 314.987C433.32 313.32 431.999 311.64 430.677 309.973C430.648 309.942 430.62 309.909 430.594 309.874C429.924 309.021 429.248 308.175 428.578 307.321L428.577 307.32C428.541 304.705 428.834 302.096 429.446 299.557Z" fill="#CCCCCC"/>
<path d="M368.709 352.501C368.413 353.385 367.853 354.15 367.108 354.687C366.364 355.223 365.473 355.503 364.564 355.486L346.804 355.016C345.889 354.998 345.003 354.675 344.281 354.097C343.558 353.518 343.037 352.715 342.795 351.806L340.282 324.175C339.39 324.59 338.419 324.795 337.441 324.775C335.724 324.73 334.094 323.987 332.91 322.707C331.726 321.427 331.086 319.716 331.129 317.95C331.172 316.185 331.895 314.509 333.14 313.292C334.385 312.075 336.049 311.416 337.766 311.46C338.157 311.459 338.547 311.501 338.93 311.585C339.346 311.122 339.851 310.754 340.414 310.504C340.977 310.254 341.584 310.129 342.197 310.135L369.515 310.86C369.742 310.869 369.967 310.898 370.189 310.946C370.788 311.061 371.356 311.307 371.855 311.666C372.355 312.026 372.773 312.491 373.082 313.031C373.392 313.571 373.586 314.172 373.65 314.795C373.714 315.418 373.648 316.048 373.456 316.643L368.709 352.501ZM339.766 322.298L337.978 315.714C337.775 314.953 337.77 314.151 337.964 313.388C337.878 313.388 337.801 313.345 337.714 313.345C336.488 313.319 335.302 313.794 334.416 314.666C333.531 315.538 333.017 316.735 332.988 317.996C332.96 319.256 333.418 320.477 334.263 321.391C335.109 322.304 336.272 322.836 337.497 322.869C338.29 322.894 339.075 322.697 339.766 322.298Z" fill="#CCCCCC"/>
<path d="M370.188 310.946C369.606 314.368 363.063 316.773 355.195 316.355C347.96 316.012 342.044 313.4 340.96 310.304C341.361 310.182 341.778 310.125 342.196 310.135L369.515 310.86C369.741 310.869 369.967 310.898 370.188 310.946Z" fill="white"/>
<path d="M575.049 456.264L-23.0489 456.516C-23.3011 456.516 -23.543 456.413 -23.7214 456.23C-23.8998 456.046 -24 455.797 -24 455.538C-24 455.279 -23.8998 455.03 -23.7214 454.847C-23.543 454.663 -23.3011 454.56 -23.0489 454.56L575.049 454.308C575.301 454.308 575.543 454.411 575.721 454.594C575.9 454.777 576 455.026 576 455.286C576 455.545 575.9 455.794 575.721 455.977C575.543 456.16 575.301 456.264 575.049 456.264Z" fill="#CACACA"/>
<path d="M239.594 237.704C241.221 237.765 242.76 238.476 243.884 239.686C245.008 240.896 245.629 242.51 245.614 244.183C245.606 244.523 245.57 244.862 245.508 245.196L264.278 256.591L262.006 268.418L237.934 249.951C236.607 249.576 235.438 248.761 234.609 247.632C233.78 246.502 233.338 245.123 233.352 243.708C233.367 242.903 233.537 242.109 233.85 241.371C234.164 240.634 234.616 239.967 235.181 239.409C235.745 238.851 236.411 238.412 237.14 238.119C237.869 237.826 238.648 237.683 239.431 237.698C239.485 237.7 239.54 237.701 239.594 237.704Z" fill="#FFB6B6"/>
<path d="M254.971 264.868C255.473 264.176 255.689 263.886 255.803 263.966C256.097 264.148 255.814 266.592 257.882 270.851C260.792 276.834 291.306 285.998 291.306 285.998L295.063 278.926L311.589 247.847L317.285 222.936C317.484 222.068 317.581 221.178 317.573 220.285C312.494 216.611 307.101 213.419 301.46 210.749C299.206 212.064 297.487 214.169 296.619 216.679L285.243 249.474L280.704 262.568C280.704 262.568 272.697 256.681 269.793 257.762C266.893 258.849 266.069 257.324 267.964 252.444C269.86 247.563 267.015 252.587 263.704 252.906C260.386 253.23 263.704 252.906 262.137 250.835C260.57 248.764 250.439 247.599 250.439 247.599L250.223 248.061L246.297 256.365L245.173 258.751C245.173 258.751 249.336 263.394 250.34 264.319C251.349 265.251 251.66 265.187 251.166 266.249C250.679 267.306 253.227 267.258 254.971 264.868Z" fill="#FDF9B2"/>
</g>
<defs>
<clipPath id="clip0_241_101">
<rect width="600" height="457" fill="white" transform="matrix(-1 0 0 1 576 0)"/>
</clipPath>
</defs>
</svg>
