<svg width="500" height="463" viewBox="0 0 500 463" fill="none" xmlns="http://www.w3.org/2000/svg">
<g clip-path="url(#clip0_212_147)">
<path d="M455.524 370.186L414.936 309.898C414.936 309.898 476.403 331.356 469.427 370.186H455.524Z" fill="#E5E5E5"/>
<path d="M34.7938 370.586L33.2529 370.556C33.8489 353.424 35.6768 336.357 38.7226 319.488C45.3855 283.37 56.4647 259.649 71.6526 248.986L72.5374 250.246C37.0584 275.157 34.8118 369.635 34.7938 370.586Z" fill="#E5E5E5"/>
<path d="M54.054 370.218L52.5132 370.188C52.5463 368.481 53.5093 328.266 69.3412 317.151L70.226 318.412C55.0328 329.079 54.0615 369.808 54.054 370.218Z" fill="#E5E5E5"/>
<path d="M81.3033 250.386C85.5582 250.386 89.0075 246.937 89.0075 242.682C89.0075 238.427 85.5582 234.978 81.3033 234.978C77.0484 234.978 73.5991 238.427 73.5991 242.682C73.5991 246.937 77.0484 250.386 81.3033 250.386Z" fill="#FDF9B2"/>
<path d="M77.4879 316.642C81.7427 316.642 85.192 313.193 85.192 308.938C85.192 304.683 81.7427 301.234 77.4879 301.234C73.233 301.234 69.7837 304.683 69.7837 308.938C69.7837 313.193 73.233 316.642 77.4879 316.642Z" fill="#FDF9B2"/>
<path d="M50.463 255.005C51.9109 264.253 48.1372 272.524 48.1372 272.524C48.1372 272.524 42.016 265.802 40.5681 256.554C39.1202 247.306 42.8939 239.034 42.8939 239.034C42.8939 239.034 49.0151 245.757 50.463 255.005Z" fill="#E5E5E5"/>
<path d="M75.6457 277.465C66.7914 280.502 57.9888 278.228 57.9888 278.228C57.9888 278.228 63.5419 271.029 72.3962 267.992C81.2506 264.955 90.0532 267.229 90.0532 267.229C90.0532 267.229 84.5001 274.428 75.6457 277.465Z" fill="#E5E5E5"/>
<path d="M75.9303 336.141C71.9229 337.4 67.6552 337.584 63.5542 336.675C66.1581 333.36 69.6651 330.869 73.6527 329.501C77.6402 328.133 81.9382 327.948 86.0288 328.966C83.3489 332.201 79.8666 334.675 75.9303 336.141Z" fill="#E5E5E5"/>
<path d="M499.23 371.727H0.770416C0.566089 371.727 0.370142 371.646 0.225661 371.502C0.0811798 371.357 0 371.161 0 370.957C0 370.752 0.0811798 370.556 0.225661 370.412C0.370142 370.268 0.566089 370.186 0.770416 370.186H499.23C499.434 370.186 499.63 370.268 499.774 370.412C499.919 370.556 500 370.752 500 370.957C500 371.161 499.919 371.357 499.774 371.502C499.63 371.646 499.434 371.727 499.23 371.727Z" fill="#CBCBCB"/>
<path d="M315.71 407.244L309.408 423.648L243.133 407.143L252.435 382.932L315.71 407.244Z" fill="#FFB7B7"/>
<path d="M333.22 409.169L312.897 462.064L312.228 461.807C306.767 459.709 302.364 455.528 299.986 450.184C297.609 444.839 297.451 438.769 299.549 433.309L299.549 433.308L311.962 401.001L333.22 409.169Z" fill="#2F2E41"/>
<path d="M215.004 201.843L186.122 204.547L184.689 290.481C185.072 294.693 187.089 298.587 190.308 301.329C193.527 304.072 197.692 305.445 201.911 305.154L220.222 303.893L215.004 201.843Z" fill="#E5E5E5"/>
<path d="M316.824 197.613L297.062 197.359L295.892 299.467C300.258 299.612 304.609 298.856 308.67 297.247C312.732 295.637 316.419 293.207 319.5 290.109C322.582 287.011 324.992 283.312 326.58 279.241C328.168 275.171 328.901 270.817 328.732 266.451L316.824 197.613Z" fill="#E5E5E5"/>
<path d="M202.158 335.741C201.69 338.702 201.01 341.627 200.125 344.491C199.128 347.296 197.588 349.889 196.676 352.722C193.77 361.752 197.799 371.821 204.234 378.791C209.814 384.811 217.018 389.089 224.975 391.107C230.78 392.567 236.816 392.777 242.798 392.98C259.364 393.541 276.357 394.044 292.054 388.72C297.013 386.997 301.804 384.821 306.364 382.219C307.804 381.533 309.073 380.534 310.077 379.295C311.275 377.591 311.428 375.38 311.417 373.297C311.382 366.275 309.958 359.288 310.296 352.273C310.484 348.388 311.211 344.505 310.853 340.632C310.357 336.232 308.515 332.094 305.577 328.782C302.638 325.471 298.749 323.148 294.44 322.132C289.987 321.176 285.368 321.697 280.835 322.133C269.067 323.264 257.249 323.792 245.427 323.716C233.348 323.639 221.343 321.795 209.325 321.603C205.77 321.546 205.842 322.642 204.71 326.082C203.668 329.248 202.816 332.473 202.158 335.741Z" fill="#2F2E41"/>
<path d="M154.925 330.033C151.677 329.217 148.33 328.861 144.983 328.976C141.466 329.17 138.031 330.111 134.906 331.736C131.781 333.361 129.037 335.632 126.858 338.399C124.679 341.166 123.114 344.366 122.267 347.784C121.42 351.203 121.31 354.763 121.946 358.228C122.757 361.98 124.082 365.603 125.885 368.993C128.522 374.344 131.684 379.682 136.565 383.111C139.42 385.117 142.725 386.367 145.991 387.597L171.698 397.282C175.48 398.707 179.263 400.132 183.082 401.453C202.27 408.085 222.275 412.062 242.541 413.273C248.713 413.641 254.98 413.743 261.002 412.338C262.431 412.004 263.955 411.507 264.783 410.295C265.273 409.441 265.562 408.487 265.627 407.505L267.209 396.43C267.432 394.871 267.646 393.23 267.075 391.762C266.35 389.901 264.534 388.73 262.802 387.735C245.901 378.028 226.167 372.673 211.941 359.35C208.592 356.214 205.789 351.242 201.72 349.111C197.106 346.695 191.672 345.317 186.903 343.09C176.476 338.223 166.225 332.63 154.925 330.033Z" fill="#2F2E41"/>
<path opacity="0.1" d="M180.59 344.963C189.676 347.81 228.04 367.536 234.616 374.423C233.734 374.741 203.829 357.982 202.932 357.712C194.775 355.264 186.573 352.8 178.827 349.218C177.268 348.497 168.703 345.109 169.091 343.143C169.529 340.925 178.977 344.457 180.59 344.963Z" fill="black"/>
<path d="M235.429 172.96L210.963 191.536C210.963 191.536 185.148 192.343 186.02 208.846C186.892 225.348 197.225 303.482 197.225 303.482L199.466 330.366L241.988 342.482C264.963 349.028 289.236 349.548 312.47 343.992L307.417 317.022C307.417 317.022 327.879 194.532 315.552 189.139C303.225 183.746 295.521 185.287 295.521 185.287L280.07 171.804L235.429 172.96Z" fill="#E5E5E5"/>
<path d="M307.848 142.955C307.848 167.07 285.55 163.422 258.044 163.422C230.538 163.422 208.24 167.07 208.24 142.955C208.24 118.84 219.132 76.0945 258.044 76.0945C298.296 76.0945 307.848 118.84 307.848 142.955Z" fill="#2F2E41"/>
<path d="M283.933 151.127C297.021 138.039 297.021 116.82 283.933 103.732C270.845 90.6443 249.626 90.6443 236.538 103.732C223.45 116.82 223.45 138.039 236.538 151.127C249.626 164.215 270.845 164.215 283.933 151.127Z" fill="#FFB7B7"/>
<path d="M219.156 126.581H232.411L238.259 110.207L239.428 126.581H245.763L249.175 117.029L249.857 126.581H296.932C296.932 117.172 293.194 108.148 286.541 101.495C279.888 94.8417 270.864 91.1039 261.455 91.1039H254.633C245.224 91.1039 236.2 94.8417 229.547 101.495C222.893 108.148 219.156 117.172 219.156 126.581Z" fill="#2F2E41"/>
<path d="M291.669 176.812H224.643V257.705H291.669V176.812Z" fill="#FDF9B2"/>
<path d="M228.337 406.473L234.64 422.878L300.915 406.373L291.612 382.161L228.337 406.473Z" fill="#FFB7B7"/>
<path d="M232.085 400.23L244.498 432.537L244.499 432.538C246.596 437.999 246.438 444.069 244.061 449.413C241.683 454.758 237.28 458.939 231.82 461.037L231.151 461.294L210.828 408.398L232.085 400.23Z" fill="#2F2E41"/>
<path d="M360.813 323.754C366.137 322.419 371.656 322.042 377.112 322.64C381.47 323.12 385.96 324.333 389.141 327.349C393.013 331.02 394.258 336.697 394.361 342.032C394.532 352.657 391.007 363.013 384.391 371.328C382.775 373.432 380.854 375.281 378.69 376.816C376.357 378.276 373.87 379.474 371.274 380.39L313.702 403.098C298.556 409.072 283.357 415.063 267.559 419.001C266.7 419.416 265.712 419.473 264.811 419.158C263.911 418.844 263.172 418.185 262.757 417.326C262.745 417.3 262.732 417.274 262.72 417.247C257.676 410.042 253.444 402.301 250.102 394.165C249.944 393.972 249.835 393.743 249.783 393.499C249.732 393.254 249.741 393.001 249.808 392.76C249.876 392.52 250 392.299 250.171 392.117C250.342 391.934 250.554 391.796 250.79 391.713L291.51 368.316C294.427 366.64 297.377 364.94 299.799 362.605C301.558 360.9 302.999 358.894 304.054 356.681C304.898 354.918 304.977 350.758 306.055 349.455C307.11 348.179 310.722 348.077 312.389 347.575C314.741 346.855 317.045 345.984 319.285 344.968C328.394 340.893 336.506 334.973 345.238 330.201C350.135 327.401 355.369 325.234 360.813 323.754Z" fill="#2F2E41"/>
<path opacity="0.1" d="M337.727 341.226C330.731 346.481 321.673 351.311 314.739 356.704C312.373 358.544 272.924 380.723 272.366 383.668C278.835 384.758 320.042 355.931 325.937 353.055C331.833 350.178 337.059 346.122 342.238 342.095C343.558 341.069 349.151 337.984 345.363 336.838C343.228 336.192 339.303 340.176 337.727 341.226Z" fill="black"/>
<path d="M463.472 138.456C476.768 138.456 487.546 127.677 487.546 114.382C487.546 101.086 476.768 90.3077 463.472 90.3077C450.177 90.3077 439.398 101.086 439.398 114.382C439.398 127.677 450.177 138.456 463.472 138.456Z" fill="#F1F1F1"/>
<path d="M418.917 142.767C428.244 142.767 435.805 135.206 435.805 125.88C435.805 116.553 428.244 108.992 418.917 108.992C409.591 108.992 402.03 116.553 402.03 125.88C402.03 135.206 409.591 142.767 418.917 142.767Z" fill="#F1F1F1"/>
<path d="M109.563 131.751C117.042 131.751 123.104 125.689 123.104 118.21C123.104 110.732 117.042 104.669 109.563 104.669C102.085 104.669 96.0225 110.732 96.0225 118.21C96.0225 125.689 102.085 131.751 109.563 131.751Z" fill="#F1F1F1"/>
<path d="M131.857 140.856C137.103 140.856 141.356 136.604 141.356 131.358C141.356 126.112 137.103 121.859 131.857 121.859C126.611 121.859 122.358 126.112 122.358 131.358C122.358 136.604 126.611 140.856 131.857 140.856Z" fill="#F1F1F1"/>
<path d="M263.215 20.7015C268.932 20.7015 273.566 16.0673 273.566 10.3507C273.566 4.63419 268.932 0 263.215 0C257.499 0 252.865 4.63419 252.865 10.3507C252.865 16.0673 257.499 20.7015 263.215 20.7015Z" fill="#F1F1F1"/>
<path opacity="0.17" d="M201.53 228.43L202.455 221.288C202.455 221.288 236.969 223.807 231.576 232.282C226.184 240.756 213.087 241.527 213.087 241.527L201.53 228.43Z" fill="#2F2E41"/>
<path d="M227.583 197.376C229.56 197.594 231.464 198.247 233.159 199.287C234.854 200.328 236.298 201.731 237.386 203.396C238.378 204.915 239.053 206.619 239.37 208.405C239.686 210.191 239.639 212.023 239.23 213.791C238.821 215.558 238.059 217.225 236.99 218.69C235.921 220.156 234.566 221.39 233.008 222.319C232.437 222.657 231.84 222.95 231.224 223.196L210.01 288.087C209.395 289.367 208.533 290.513 207.474 291.459C206.415 292.406 205.179 293.133 203.838 293.6C202.497 294.067 201.076 294.265 199.658 294.181C198.241 294.097 196.853 293.734 195.576 293.112C194.299 292.491 193.158 291.623 192.217 290.558C191.277 289.494 190.556 288.254 190.096 286.91C189.637 285.567 189.447 284.145 189.538 282.728C189.63 281.31 190.001 279.925 190.629 278.652L213.19 214.482C212.576 212.359 212.494 210.117 212.952 207.954C213.411 205.792 214.395 203.776 215.818 202.085C217.241 200.394 219.059 199.079 221.111 198.258C223.163 197.437 225.386 197.134 227.583 197.376Z" fill="#FFB7B7"/>
<path d="M201.847 221.896C201.847 221.896 214.003 242.665 231.577 232.282L214.545 297.458H200.196L185.352 294.686L189.508 267.757L201.847 221.896Z" fill="#E5E5E5"/>
<path d="M288.642 236.092L278.572 222.266C278.572 222.266 283.412 207.927 302.179 213.171C302.179 213.171 314.121 239.901 288.642 236.092Z" fill="#E5E5E5"/>
<path opacity="0.17" d="M288.642 236.092L278.572 222.266C278.572 222.266 283.412 207.927 302.179 213.171C302.179 213.171 314.121 239.901 288.642 236.092Z" fill="#2F2E41"/>
<path d="M291.308 187.789C294.213 189.14 296.537 191.488 297.857 194.408C299.177 197.327 299.405 200.623 298.5 203.696L321.06 267.866C321.689 269.139 322.06 270.525 322.152 271.942C322.243 273.36 322.054 274.781 321.594 276.125C321.134 277.469 320.414 278.709 319.473 279.773C318.533 280.838 317.391 281.706 316.114 282.327C314.837 282.949 313.449 283.312 312.032 283.396C310.614 283.48 309.193 283.282 307.852 282.815C306.51 282.348 305.275 281.62 304.215 280.674C303.156 279.728 302.295 278.581 301.68 277.301L280.466 212.41C279.849 212.164 279.253 211.871 278.682 211.534C277.123 210.605 275.769 209.37 274.7 207.904C273.631 206.439 272.869 204.772 272.46 203.005C272.051 201.237 272.003 199.405 272.32 197.619C272.637 195.833 273.312 194.129 274.303 192.61C275.392 190.945 276.836 189.542 278.531 188.501C280.225 187.461 282.13 186.808 284.107 186.591C286.572 186.311 289.067 186.726 291.308 187.789Z" fill="#FFB7B7"/>
<path d="M278.572 222.267C278.572 222.267 295.187 232.348 302.179 213.171L325.591 274.815L318.634 286.981L317.628 287.065C313.478 287.411 309.306 286.745 305.47 285.123C301.634 283.501 298.249 280.972 295.606 277.754C290.216 271.189 286.546 263.385 284.929 255.046L278.572 222.267Z" fill="#E5E5E5"/>
</g>
<defs>
<clipPath id="clip0_212_147">
<rect width="500" height="462.064" fill="white"/>
</clipPath>
</defs>
</svg>
