<svg width="500" height="394" viewBox="0 0 500 394" fill="none" xmlns="http://www.w3.org/2000/svg">
<g clip-path="url(#clip0_215_299)">
<path d="M120.041 213.537C116.05 192.18 122.333 167.883 139.795 154.955C138.805 178.562 146.197 201.757 160.664 220.438C166.269 227.622 173.251 235.029 173.034 244.139C172.899 249.807 169.834 255.087 165.794 259.066C161.754 263.044 156.778 265.912 151.861 268.735L151.096 269.926C136.682 253.668 124.031 234.894 120.041 213.537Z" fill="#F0F0F0"/>
<path d="M140.113 155.282C132.776 171.701 130.8 190.014 134.464 207.62C135.186 211.425 136.502 215.091 138.366 218.486C140.288 221.733 143.044 224.407 146.349 226.229C149.397 227.99 152.718 229.438 155.284 231.909C156.579 233.193 157.587 234.737 158.244 236.438C158.9 238.14 159.19 239.961 159.093 241.782C158.97 246.326 157.222 250.555 155.368 254.631C153.31 259.157 151.101 263.825 151.235 268.913C151.251 269.53 150.293 269.519 150.277 268.903C150.045 260.051 156.445 252.941 157.871 244.447C158.537 240.483 158.012 236.295 155.225 233.223C152.788 230.536 149.365 229.04 146.264 227.283C143.014 225.553 140.237 223.053 138.176 220.003C136.146 216.714 134.69 213.104 133.871 209.327C131.891 200.854 131.256 192.122 131.989 183.451C132.771 173.551 135.24 163.857 139.291 154.79C139.542 154.229 140.362 154.724 140.113 155.282Z" fill="white"/>
<path d="M132.951 202.021C129.913 202.234 126.899 201.362 124.446 199.558C121.992 197.754 120.26 195.137 119.558 192.174C119.418 191.574 120.344 191.329 120.484 191.93C121.133 194.69 122.747 197.127 125.035 198.802C127.322 200.477 130.134 201.279 132.961 201.063C133.575 201.017 133.562 201.975 132.951 202.021Z" fill="white"/>
<path d="M144.687 225.54C148.81 220.877 151.025 214.832 150.889 208.609C150.875 207.992 151.832 208.003 151.846 208.619C151.976 215.095 149.658 221.381 145.357 226.224C144.947 226.685 144.279 225.999 144.687 225.54Z" fill="white"/>
<path d="M133.893 174.146C135.085 174.308 136.3 174.171 137.426 173.748C138.553 173.325 139.557 172.629 140.348 171.722C140.752 171.256 141.42 171.943 141.018 172.406C140.139 173.404 139.03 174.172 137.786 174.642C136.542 175.112 135.202 175.27 133.883 175.103C133.757 175.098 133.638 175.045 133.55 174.955C133.462 174.865 133.412 174.745 133.409 174.619C133.411 174.493 133.463 174.372 133.554 174.283C133.644 174.194 133.766 174.145 133.893 174.146Z" fill="white"/>
<path d="M211.205 172.621C210.96 172.919 210.716 173.217 210.474 173.524C207.212 177.551 204.283 181.838 201.716 186.34C201.512 186.685 201.31 187.037 201.117 187.387C195.046 198.3 191.055 210.245 189.346 222.615C188.67 227.538 188.37 232.505 188.447 237.473C188.555 244.335 189.218 251.766 187.115 258.077C186.903 258.737 186.65 259.384 186.358 260.014L152.607 270.767C152.518 270.753 152.431 270.747 152.342 270.733L151.014 271.224C150.992 270.968 150.975 270.702 150.953 270.446C150.94 270.298 150.934 270.147 150.92 269.999C150.914 269.899 150.908 269.799 150.896 269.709C150.894 269.676 150.892 269.643 150.892 269.617C150.881 269.528 150.879 269.443 150.87 269.361C150.77 267.875 150.677 266.386 150.6 264.893C150.598 264.885 150.598 264.885 150.603 264.875C150.023 253.498 150.389 241.974 152.492 230.871C152.555 230.537 152.616 230.195 152.694 229.856C153.67 224.857 155.053 219.945 156.829 215.171C157.809 212.56 158.922 210 160.161 207.502C163.377 201.052 167.587 195.148 172.637 190.007C182.706 179.758 195.94 172.845 210.121 172.627C210.484 172.622 210.839 172.618 211.205 172.621Z" fill="#F0F0F0"/>
<path d="M211.265 173.073C195.522 181.766 182.918 195.198 175.244 211.462C173.529 214.934 172.373 218.654 171.817 222.486C171.397 226.237 171.988 230.031 173.529 233.476C174.902 236.716 176.682 239.872 177.244 243.39C177.504 245.195 177.38 247.035 176.88 248.789C176.38 250.542 175.514 252.171 174.341 253.567C171.507 257.121 167.565 259.445 163.631 261.583C159.263 263.958 154.688 266.355 151.731 270.498C151.373 271 150.615 270.415 150.973 269.914C156.117 262.706 165.508 260.882 171.761 254.959C174.679 252.195 176.781 248.534 176.406 244.404C176.078 240.791 174.245 237.535 172.827 234.266C171.274 230.928 170.561 227.26 170.752 223.583C171.111 219.735 172.122 215.977 173.742 212.468C177.263 204.511 182.013 197.156 187.819 190.675C194.404 183.24 202.212 176.987 210.905 172.186C211.443 171.889 211.8 172.778 211.265 173.073Z" fill="white"/>
<path d="M177.406 206.08C174.853 204.422 172.971 201.91 172.098 198.993C171.225 196.076 171.418 192.943 172.641 190.155C172.891 189.592 173.778 189.953 173.528 190.517C172.384 193.111 172.205 196.029 173.023 198.744C173.842 201.459 175.604 203.791 177.991 205.321C178.509 205.654 177.922 206.411 177.406 206.08Z" fill="white"/>
<path d="M172.617 231.924C178.717 230.684 184.125 227.19 187.762 222.14C188.123 221.639 188.881 222.224 188.521 222.724C184.725 227.973 179.09 231.597 172.74 232.874C172.135 232.995 172.015 232.045 172.617 231.924Z" fill="white"/>
<path d="M194.942 184.39C195.796 185.238 196.848 185.86 198.002 186.2C199.156 186.541 200.377 186.59 201.555 186.342C202.158 186.213 202.277 187.163 201.678 187.291C200.375 187.559 199.027 187.504 197.751 187.13C196.475 186.757 195.31 186.077 194.357 185.149C194.26 185.069 194.197 184.955 194.181 184.83C194.165 184.706 194.197 184.579 194.27 184.477C194.348 184.377 194.462 184.312 194.588 184.296C194.714 184.28 194.841 184.314 194.942 184.39Z" fill="white"/>
<path d="M264.22 55.8319C264.333 56.329 264.407 56.8341 264.44 57.3428L304.012 80.1716L313.631 74.6344L323.884 88.0582L307.809 99.5155C306.511 100.441 304.947 100.92 303.353 100.882C301.758 100.843 300.22 100.288 298.968 99.3001L258.162 67.1085C256.321 67.7901 254.315 67.895 252.413 67.4091C250.51 66.9232 248.801 65.8696 247.511 64.3884C246.222 62.9072 245.415 61.0686 245.196 59.1172C244.977 57.1657 245.358 55.194 246.287 53.4641C247.216 51.7342 248.65 50.3283 250.398 49.4332C252.146 48.5381 254.125 48.1964 256.071 48.4535C258.018 48.7105 259.84 49.5542 261.296 50.8722C262.752 52.1902 263.771 53.9201 264.22 55.8319Z" fill="#FFB6B6"/>
<path d="M304.561 77.6512C304.687 77.0688 304.936 76.5204 305.293 76.0434C305.65 75.5664 306.105 75.1719 306.629 74.887L324.898 64.9328C327.331 63.0965 330.393 62.3001 333.412 62.7181C336.431 63.1361 339.162 64.7344 341.004 67.1625C342.847 69.5907 343.651 72.6504 343.241 75.6708C342.831 78.6912 341.24 81.4256 338.817 83.2745L324.174 98.1497C323.756 98.5742 323.251 98.9036 322.695 99.1156C322.138 99.3275 321.542 99.417 320.948 99.3779C320.353 99.3388 319.774 99.172 319.25 98.889C318.726 98.606 318.269 98.2133 317.91 97.7377L305.303 81.0227C304.944 80.5472 304.692 79.9998 304.564 79.4179C304.436 78.8361 304.435 78.2334 304.561 77.6512Z" fill="#3F3D56"/>
<path d="M337.201 19.7807C339.829 11.4034 345.807 3.71999 354.074 0.887991C362.341 -1.94399 374.446 2.37004 380.662 8.56421C392.03 19.8946 394.805 58.8184 386.994 71.1188C385.44 71.0366 380.08 70.9758 378.507 70.9169L376.283 63.5031V70.8438C364.01 70.4645 351.232 70.702 338.448 70.9476C337.302 62.2388 334.572 28.158 337.201 19.7807Z" fill="#2F2E41"/>
<path d="M333.683 371.417H322.489L317.164 328.238L333.686 328.239L333.683 371.417Z" fill="#FFB6B6"/>
<path d="M431.678 364.456L420.846 367.279L404.801 326.84L420.789 322.674L431.678 364.456Z" fill="#FFB6B6"/>
<path d="M369.988 106.221L372.525 112.816L372.018 119.411L322.376 136.605L324.839 107.743L330.419 101.148L369.988 106.221Z" fill="#FFB6B6"/>
<path d="M354.293 46.874C364.085 46.874 372.023 38.936 372.023 29.1439C372.023 19.3519 364.085 11.4138 354.293 11.4138C344.501 11.4138 336.562 19.3519 336.562 29.1439C336.562 38.936 344.501 46.874 354.293 46.874Z" fill="#FFB7B7"/>
<path d="M342.11 6.05613C345.517 3.97926 349.419 2.8558 353.408 2.80321C357.398 2.75061 361.328 3.77081 364.789 5.75715C368.249 7.74348 371.112 10.623 373.079 14.0946C375.045 17.5662 376.043 21.5024 375.968 25.4916C366.303 27.9617 356.004 28.9949 345.089 26.0865L342.595 19.9805L341.124 26.091C337.785 28.4398 334.562 28.4356 331.455 26.0783C331.324 22.1004 332.238 18.1575 334.108 14.6439C335.978 11.1304 338.737 8.16908 342.11 6.05613Z" fill="#2F2E41"/>
<path d="M338.691 392.673H330.747L329.33 385.173L325.698 392.673H304.631C303.621 392.673 302.637 392.35 301.824 391.752C301.01 391.153 300.41 390.31 300.109 389.346C299.809 388.382 299.824 387.347 300.153 386.393C300.483 385.438 301.109 384.614 301.94 384.04L318.764 372.421V364.839L336.459 365.895L338.691 392.673Z" fill="#2F2E41"/>
<path d="M442.867 383.505L435.18 385.509L431.916 378.61L430.294 386.783L409.908 392.097C408.931 392.351 407.897 392.287 406.959 391.913C406.021 391.539 405.227 390.875 404.693 390.018C404.159 389.161 403.913 388.156 403.991 387.149C404.069 386.142 404.467 385.186 405.126 384.421L418.475 368.934L416.563 361.598L433.953 358.156L442.867 383.505Z" fill="#2F2E41"/>
<path d="M430.304 337.302L397.491 269.862L387.191 187.778C394.293 174.588 381.103 147.75 381.103 147.75V136.482L330.01 146.121C319.559 174.624 314.492 204.819 315.065 235.172L317.123 344.284H316.477C315.406 344.284 314.378 344.71 313.62 345.468C312.862 346.225 312.437 347.253 312.437 348.325C312.437 349.397 312.862 350.424 313.62 351.182C314.378 351.94 315.406 352.366 316.477 352.366H336.682C337.754 352.366 338.781 351.94 339.539 351.182C340.297 350.424 340.723 349.397 340.723 348.325C340.723 347.253 340.297 346.225 339.539 345.468C338.781 344.71 337.754 344.284 336.682 344.284H336.161L350.665 205.474L367.53 273.973L408.286 337.043C407.247 337.124 406.279 337.605 405.587 338.384C404.894 339.164 404.53 340.181 404.572 341.223C404.614 342.265 405.058 343.25 405.811 343.972C406.564 344.693 407.567 345.095 408.61 345.092H428.814C429.754 345.093 430.665 344.766 431.389 344.168C432.114 343.569 432.607 342.737 432.783 341.814C432.96 340.891 432.809 339.935 432.356 339.112C431.904 338.288 431.178 337.648 430.304 337.302Z" fill="#2F2E41"/>
<path d="M385.722 154.658C385.555 153.999 385.182 153.41 384.659 152.975C384.135 152.54 383.488 152.282 382.809 152.238C382.135 144.538 377.685 95.1575 377.516 93.7089L377.51 93.6476L376.221 66.1229C376.174 65.1232 375.761 64.1758 375.06 63.4617C374.359 62.7476 373.419 62.3167 372.421 62.2514L365.615 61.8066C365.522 61.8034 365.433 61.7641 365.368 61.697C365.303 61.6298 365.267 61.5401 365.267 61.4467C365.267 60.6951 365.119 59.9509 364.831 59.2566C364.544 58.5622 364.122 57.9313 363.591 57.3999C363.059 56.8685 362.429 56.4469 361.734 56.1593C361.04 55.8717 360.296 55.7236 359.544 55.7236H339.395C338.09 55.7242 336.83 56.201 335.852 57.0646C334.873 57.9282 334.244 59.1193 334.081 60.4142C334.072 60.5033 334.03 60.5858 333.963 60.6452C333.896 60.7045 333.809 60.7363 333.719 60.7343L333.717 60.7342C331.427 60.6871 329.197 61.4622 327.43 62.919C325.663 64.3757 324.477 66.4176 324.087 68.6741C321.332 84.7011 315.812 121.076 318.541 141.299C319.491 148.339 319.059 158.926 318.7 164.817C318.664 165.386 318.741 165.956 318.927 166.496C319.112 167.035 319.402 167.533 319.779 167.96C318.976 168.192 318.294 168.726 317.877 169.451C317.46 170.176 317.34 171.034 317.544 171.845C317.753 172.677 318.285 173.391 319.021 173.831C319.757 174.27 320.637 174.399 321.469 174.19L383.378 158.583C384.209 158.374 384.923 157.843 385.363 157.106C385.803 156.37 385.932 155.49 385.722 154.658Z" fill="#3F3D56"/>
<path d="M283.403 270.376C283.391 268.568 282.74 266.823 281.565 265.45C280.389 264.077 278.766 263.165 276.981 262.875L167.219 244.851C166.167 244.676 165.089 244.724 164.056 244.991L138.333 251.642L123.574 255.463L96.3358 262.504C94.6915 262.931 93.2355 263.892 92.196 265.236C91.1565 266.579 90.5922 268.23 90.5918 269.929V384.944C90.6 386.697 91.2059 388.396 92.3094 389.758C93.413 391.121 94.9482 392.066 96.6617 392.439L208.462 391.173C208.987 391.285 209.523 391.341 210.06 391.339C210.842 391.34 211.62 391.222 212.366 390.987L278.79 392.64C280.357 392.151 281.725 391.169 282.691 389.841C283.657 388.513 284.168 386.909 284.15 385.267L283.403 270.376Z" fill="white"/>
<path d="M283.403 270.376C283.391 268.568 282.74 266.823 281.565 265.45C280.389 264.077 278.766 263.165 276.981 262.875L167.219 244.851C166.167 244.676 165.089 244.724 164.056 244.991L138.333 251.642L123.574 255.463L96.3358 262.504C94.6915 262.931 93.2355 263.892 92.196 265.236C91.1565 266.579 90.5922 268.23 90.5918 269.929V384.944C90.6 386.697 91.2059 388.396 92.3094 389.758C93.413 391.121 94.9482 392.066 96.6617 392.439L208.462 391.173C208.987 391.285 209.523 391.341 210.06 391.339C210.842 391.34 211.62 391.222 212.366 390.987L278.79 392.64C280.357 392.151 281.725 391.169 282.691 389.841C283.657 388.513 284.168 386.909 284.15 385.267L283.403 270.376ZM278.215 390.813L211.791 392.393C210.844 392.688 209.836 392.736 208.865 392.533L97.0578 390.567C95.7732 390.287 94.6224 389.577 93.7953 388.555C92.9683 387.532 92.5144 386.259 92.5086 384.944V269.929C92.5094 268.751 92.8713 267.602 93.5453 266.637C94.2194 265.672 95.1733 264.936 96.2783 264.53C96.4538 264.464 96.633 264.408 96.815 264.363L125.631 256.914L142.671 252.505L164.536 246.85C165.004 246.725 165.488 246.663 165.973 246.665C166.286 246.665 166.598 246.691 166.906 246.742L276.668 264.766C277.552 264.911 278.389 265.26 279.114 265.784C279.84 266.309 280.433 266.995 280.847 267.788C281.262 268.593 281.481 269.484 281.486 270.389L282.234 385.28C282.247 386.511 281.864 387.715 281.14 388.711C280.416 389.708 279.39 390.445 278.215 390.813Z" fill="#CCCCCC"/>
<path d="M280.847 267.788C280.772 267.837 280.69 267.874 280.604 267.897L248.319 276.625L238.268 279.34L209.683 287.065C209.601 287.085 209.517 287.096 209.433 287.097C209.376 287.096 209.318 287.091 209.261 287.084L93.9972 266.07L93.6139 265.999C93.3642 265.952 93.1432 265.808 92.9992 265.599C92.8553 265.39 92.8001 265.132 92.8457 264.882C92.8913 264.632 93.034 264.41 93.2426 264.265C93.4512 264.12 93.7087 264.064 93.9589 264.108L96.2783 264.53L209.395 285.154L234.032 278.497L247.814 274.772L279.601 266.178L280.106 266.044C280.324 265.986 280.555 266.007 280.76 266.103C280.964 266.199 281.128 266.363 281.224 266.568C281.249 266.617 281.268 266.668 281.281 266.721C281.334 266.922 281.32 267.135 281.242 267.327C281.164 267.519 281.025 267.681 280.847 267.788Z" fill="#CCCCCC"/>
<path d="M210.391 391.562C209.866 391.562 209.438 391.139 209.433 393.845L208.475 289.38C208.47 285.618 208.895 285.185 209.424 285.18H209.433C209.958 285.18 210.386 285.603 210.391 289.362L211.35 393.828C211.355 391.124 210.929 391.557 210.4 391.562H210.391Z" fill="#CCCCCC"/>
<path d="M248.59 392.775L238.268 392.884L234.032 278.497L125.944 256.99C125.838 256.971 125.733 256.946 125.631 256.914C124.8 256.677 124.075 256.166 123.573 255.463L138.333 251.642L142.671 252.505L245.233 272.906C245.772 273.013 246.282 273.234 246.727 273.556C247.173 273.878 247.544 274.293 247.814 274.772C248.133 275.328 248.584 392.11 248.59 392.775Z" fill="#CCCCCC"/>
<path d="M331.269 61.009C331.261 59.6468 330.77 58.3317 329.884 57.2969C328.998 56.262 327.774 55.5744 326.43 55.3558L243.707 41.7717C242.914 41.6404 242.102 41.6765 241.323 41.8777L221.937 46.8905L210.813 49.77L190.286 55.0765C189.046 55.3983 187.949 56.1223 187.166 57.135C186.382 58.1476 185.957 59.3916 185.957 60.6719V128.472C185.963 129.793 186.419 131.073 187.251 132.1C188.083 133.127 189.24 133.84 190.531 134.12L274.79 152.048C275.186 152.133 275.589 152.175 275.994 152.173C276.583 152.174 277.17 152.085 277.732 151.908L327.792 136.099C328.974 135.731 330.005 134.991 330.733 133.99C331.461 132.989 331.846 131.78 331.833 130.543L331.269 61.009Z" fill="white"/>
<path d="M242.77 46.7506C242.71 46.7505 242.65 46.7583 242.591 46.7737L191.553 59.9726C191.399 60.0127 191.261 60.103 191.164 60.2294C191.066 60.3558 191.013 60.5111 191.013 60.6709V128.47C191.013 128.635 191.07 128.795 191.174 128.923C191.278 129.052 191.422 129.141 191.584 129.176L275.843 147.103C275.965 147.129 276.091 147.123 276.21 147.085L326.272 131.277C326.419 131.231 326.548 131.138 326.639 131.013C326.729 130.888 326.777 130.737 326.775 130.583L326.214 61.0495C326.213 60.8793 326.152 60.7151 326.041 60.586C325.93 60.4568 325.777 60.3709 325.609 60.3436L242.887 46.76C242.848 46.7538 242.809 46.7507 242.77 46.7506Z" fill="#FDF9B2"/>
<path d="M331.269 61.009C331.261 59.6468 330.77 58.3317 329.884 57.2969C328.998 56.262 327.774 55.5744 326.43 55.3558L243.707 41.7717C242.914 41.6404 242.102 41.6765 241.323 41.8777L221.937 46.8905L210.813 49.77L190.286 55.0765C189.046 55.3983 187.949 56.1223 187.166 57.135C186.382 58.1476 185.957 59.3916 185.957 60.6719V128.472C185.963 129.793 186.419 131.073 187.251 132.1C188.083 133.127 189.24 133.84 190.531 134.12L274.79 152.048C275.186 152.133 275.589 152.175 275.994 152.173C276.583 152.174 277.17 152.085 277.732 151.908L327.792 136.099C328.974 135.731 330.005 134.991 330.733 133.99C331.461 132.989 331.846 131.78 331.833 130.543L331.269 61.009ZM327.359 134.722L277.299 150.531C276.585 150.753 275.826 150.79 275.093 150.637L190.83 132.709C189.861 132.498 188.994 131.964 188.371 131.193C187.748 130.423 187.406 129.463 187.401 128.472V60.672C187.402 59.7846 187.674 58.9188 188.182 58.1912C188.69 57.4636 189.409 56.9093 190.242 56.603C190.374 56.5533 190.51 56.5115 190.647 56.4778L212.364 50.8631L225.206 47.5405L241.684 43.279C242.038 43.1846 242.402 43.1377 242.768 43.1393C243.004 43.1392 243.239 43.1585 243.471 43.1971L326.194 56.7812C326.859 56.8904 327.491 57.1531 328.037 57.5484C328.584 57.9437 329.031 58.4609 329.343 59.0589C329.656 59.6651 329.82 60.3366 329.825 61.0187L330.388 130.552C330.398 131.481 330.109 132.387 329.564 133.139C329.018 133.89 328.245 134.445 327.359 134.722Z" fill="#3F3D56"/>
<path d="M329.343 59.0588C329.287 59.0957 329.225 59.1233 329.16 59.1406L304.828 65.7184L297.254 67.7649L275.71 73.5866C275.648 73.6017 275.585 73.6098 275.522 73.6107C275.479 73.6099 275.435 73.6067 275.392 73.6011L188.523 57.7634L188.234 57.7105C188.046 57.6753 187.879 57.5669 187.771 57.4091C187.662 57.2512 187.62 57.0568 187.655 56.8684C187.689 56.6799 187.797 56.5127 187.954 56.4034C188.112 56.2941 188.306 56.2516 188.494 56.2851L190.242 56.6029L275.493 72.1469L294.061 67.1293L304.448 64.3219L328.404 57.8453L328.785 57.7442C328.949 57.7008 329.124 57.7166 329.278 57.7887C329.432 57.8609 329.555 57.9849 329.627 58.139C329.646 58.1758 329.66 58.2146 329.671 58.2546C329.71 58.406 329.7 58.5662 329.641 58.7112C329.582 58.8562 329.477 58.9782 329.343 59.0588Z" fill="#3F3D56"/>
<path d="M276.244 152.342C276.054 152.342 275.871 152.266 275.736 152.132C275.601 151.998 275.524 151.816 275.522 151.626L274.8 72.895C274.798 72.7035 274.873 72.5191 275.007 72.3824C275.141 72.2457 275.324 72.1679 275.516 72.1661H275.522C275.713 72.1661 275.895 72.2413 276.031 72.3754C276.166 72.5094 276.243 72.6915 276.244 72.8819L276.967 151.613C276.968 151.804 276.894 151.989 276.76 152.125C276.626 152.262 276.443 152.34 276.251 152.342H276.244Z" fill="#3F3D56"/>
<path d="M304.828 142.764L297.254 144.81L294.061 67.1293L212.6 50.9209C212.52 50.9068 212.441 50.8875 212.364 50.8631C211.738 50.6849 211.192 50.2995 210.813 49.77L221.937 46.8905L225.207 47.5406L302.502 62.916C302.909 62.9962 303.293 63.1635 303.629 63.4061C303.965 63.6488 304.244 63.9613 304.448 64.322C304.689 64.7409 304.824 142.263 304.828 142.764Z" fill="#3F3D56"/>
<path d="M301.435 98.4734C301.822 98.8047 302.183 99.1661 302.513 99.5541L347.889 94.2547L352.302 84.0713L368.541 88.7227L362.481 107.51C361.991 109.027 361.023 110.345 359.72 111.266C358.418 112.186 356.852 112.659 355.258 112.614L303.304 111.137C302.233 112.783 300.687 114.064 298.87 114.809C297.054 115.555 295.053 115.73 293.135 115.311C291.216 114.892 289.471 113.898 288.131 112.463C286.791 111.028 285.919 109.219 285.633 107.276C285.346 105.333 285.657 103.349 286.525 101.588C287.394 99.8269 288.777 98.3717 290.493 97.4161C292.208 96.4605 294.174 96.0498 296.129 96.2387C298.083 96.4276 299.934 97.207 301.435 98.4734Z" fill="#FFB6B6"/>
<path d="M346.826 91.9043C346.58 91.3622 346.453 90.7731 346.454 90.1774C346.456 89.5817 346.586 88.9934 346.836 88.4526L355.554 69.562C356.41 66.6368 358.392 64.1707 361.064 62.7043C363.736 61.238 366.88 60.891 369.808 61.7396C372.735 62.5882 375.207 64.5631 376.68 67.2311C378.154 69.8992 378.509 73.0428 377.668 75.9724L374.797 96.6469C374.715 97.2369 374.507 97.8023 374.187 98.3046C373.866 98.8069 373.442 99.2344 372.941 99.5577C372.441 99.8811 371.877 100.093 371.288 100.179C370.698 100.264 370.097 100.222 369.525 100.054L349.434 94.1665C348.862 93.9993 348.333 93.7106 347.883 93.3202C347.433 92.9297 347.073 92.4468 346.826 91.9043Z" fill="#3F3D56"/>
<path d="M499.038 393.616H0.962419C0.707689 393.615 0.463636 393.514 0.283775 393.333C0.103913 393.153 0.00292969 392.908 0.00292969 392.654C0.00292969 392.399 0.103913 392.155 0.283775 391.974C0.463636 391.794 0.707689 391.692 0.962419 391.691H499.038C499.293 391.691 499.538 391.793 499.718 391.973C499.899 392.154 500 392.398 500 392.654C500 392.909 499.899 393.154 499.718 393.334C499.538 393.515 499.293 393.616 499.038 393.616Z" fill="#CACACA"/>
<path d="M97.0725 291.367C113.057 291.367 126.014 278.41 126.014 262.426C126.014 246.442 113.057 233.484 97.0725 233.484C81.0885 233.484 68.1309 246.442 68.1309 262.426C68.1309 278.41 81.0885 291.367 97.0725 291.367Z" fill="#FDF9B2"/>
<path d="M93.124 277.488C92.6243 277.489 92.1313 277.372 91.6844 277.149C91.2374 276.925 90.8486 276.6 90.5488 276.2L82.6531 265.673C82.1408 264.99 81.9209 264.131 82.0417 263.286C82.1624 262.441 82.614 261.678 83.2971 261.166C83.9802 260.653 84.8387 260.433 85.684 260.554C86.5292 260.675 87.2918 261.127 87.8041 261.81L92.9697 268.697L106.237 248.796C106.471 248.443 106.772 248.139 107.124 247.903C107.475 247.666 107.87 247.501 108.285 247.417C108.7 247.334 109.128 247.333 109.544 247.415C109.959 247.497 110.355 247.66 110.707 247.895C111.06 248.13 111.362 248.432 111.598 248.784C111.833 249.136 111.997 249.531 112.079 249.947C112.162 250.363 112.161 250.79 112.078 251.206C111.995 251.621 111.831 252.016 111.594 252.368L95.803 276.055C95.5174 276.483 95.1332 276.837 94.6826 277.086C94.2321 277.335 93.7283 277.473 93.2136 277.487C93.1838 277.488 93.1539 277.488 93.124 277.488Z" fill="white"/>
<path d="M220.305 108.7C220.215 108.7 220.125 108.69 220.038 108.67L194.984 103.013C194.671 102.942 194.399 102.749 194.227 102.478C194.056 102.206 193.999 101.877 194.07 101.564C194.14 101.251 194.333 100.978 194.604 100.806C194.876 100.635 195.204 100.578 195.518 100.648L220.571 106.305C220.862 106.371 221.118 106.541 221.291 106.784C221.464 107.027 221.542 107.325 221.509 107.622C221.476 107.918 221.335 108.192 221.113 108.391C220.891 108.59 220.603 108.7 220.305 108.7Z" fill="white"/>
<path d="M123.885 336.393C123.796 336.411 123.707 336.42 123.617 336.418L97.9359 335.986C97.6148 335.98 97.3092 335.847 97.0862 335.616C96.8632 335.385 96.7409 335.075 96.7463 334.754C96.7516 334.432 96.8841 334.127 97.1147 333.903C97.3452 333.68 97.655 333.557 97.9761 333.561L123.657 333.994C123.955 333.999 124.241 334.114 124.46 334.316C124.679 334.519 124.815 334.795 124.843 335.092C124.871 335.388 124.789 335.685 124.612 335.925C124.436 336.166 124.176 336.332 123.885 336.393Z" fill="#E6E6E6"/>
<path d="M132.774 350.132C132.686 350.15 132.596 350.159 132.506 350.157L106.826 349.725C106.504 349.719 106.199 349.586 105.976 349.355C105.753 349.124 105.631 348.814 105.636 348.493C105.641 348.171 105.774 347.866 106.004 347.642C106.235 347.419 106.545 347.296 106.866 347.3L132.546 347.733C132.845 347.738 133.13 347.853 133.349 348.055C133.568 348.258 133.705 348.534 133.733 348.831C133.761 349.128 133.679 349.424 133.502 349.664C133.325 349.905 133.066 350.071 132.774 350.132Z" fill="#E6E6E6"/>
</g>
<defs>
<clipPath id="clip0_215_299">
<rect width="500" height="393.845" fill="white"/>
</clipPath>
</defs>
</svg>
