<svg width="829" height="655" viewBox="0 0 829 655" fill="none" xmlns="http://www.w3.org/2000/svg">
<path d="M340.82 525.432L350.35 522.367L343.06 484.15L328.995 488.675L340.82 525.432Z" fill="#A0616A"/>
<path d="M349.27 516.704L349.26 516.707L339.269 520.588L339.26 520.591L336.948 521.493L342.099 543.709L342.373 544.9L349.148 542.727L348.989 541.504L348.292 535.944L352.515 540.373L353.432 541.34L371.381 535.576C372.448 535.233 373.289 534.496 373.785 533.566C374.331 532.592 374.482 531.396 374.105 530.245C373.723 526.466 356.343 523.612 353.794 522.202L351.721 515.742L349.27 516.704Z" fill="#2F2E41"/>
<path d="M323.329 392.686C324.875 393.962 325.961 395.709 326.42 397.661L328.466 406.397L350.049 499.58L326.425 508.462C311.209 478.092 302.118 459.059 301.604 437.705C301.46 431.789 301.98 425.685 303.205 419.115C303.205 419.115 287.822 429.585 269.542 441.569C267.937 442.62 266.306 443.689 264.654 444.755C249.489 454.631 233.142 464.988 222.241 471.056C215.609 474.75 209.263 474.721 203.57 472.464C187.319 466.067 176.245 441.655 178.395 434.087L202.946 397.547L233.318 412.689L236.493 414.269L289.613 383.094C297.364 378.545 307.13 379.324 314.063 385.042L323.329 392.686Z" fill="#2F2E41"/>
<path d="M776.01 256.577C783.072 244.214 787.658 232.093 789.296 220.913C782.749 220.184 776.957 220.692 771.9 222.307C780.607 208.503 786.42 191.502 778.854 182.776C774.089 177.965 767.931 174.363 760.653 171.971C763.007 161.606 763.035 151.895 760.351 143.357C747.903 103.608 665.513 175.223 612.934 144.226C590.891 131.236 567.163 147.604 547.945 173.924C550.581 182.677 555.449 190.811 562.285 197.199C553.575 196.608 545.007 194.171 537.38 190.122C516.815 225.231 504.386 269.182 510.61 289.052C514.65 301.944 524.32 310.607 537.888 315.068C535.534 325.433 586.397 399.84 595.769 399.762C620.684 399.557 628.431 345.713 645.065 414.713L608.009 630H661.681V407.976C676.615 386.038 692.041 400.711 727.593 383.637C836.64 331.265 790.152 273.541 776.01 256.577Z" fill="white"/>
<path d="M334.14 158.041C342.766 142.482 348.367 127.227 350.369 113.156C342.371 112.24 335.297 112.878 329.12 114.911C339.755 97.5385 346.855 76.1434 337.614 65.1603C331.794 59.1059 324.272 54.5734 315.382 51.5631C318.257 38.5184 318.292 26.2966 315.014 15.5519C299.809 -34.4736 199.174 55.6558 134.951 16.6455C108.026 0.297305 79.0432 20.8961 55.5692 54.021C58.7895 65.0363 64.7356 75.2737 73.0855 83.3125C62.4469 82.5684 51.9808 79.5017 42.6648 74.4056C17.5461 118.591 2.3645 173.904 9.9668 198.911C14.9008 215.136 26.7126 226.038 43.2859 231.653C40.4106 244.698 102.536 338.339 113.984 338.242C144.416 337.983 153.879 270.22 174.197 357.058L128.935 628H194.492V348.579C212.734 320.97 231.575 339.436 275.001 317.947C408.196 252.036 351.414 179.39 334.14 158.041Z" fill="white"/>
<path d="M482.215 610.777C484.281 610.907 485.423 608.34 483.86 606.844L483.704 606.226C483.725 606.176 483.745 606.127 483.766 606.077C485.855 601.095 492.936 601.13 495.007 606.119C496.846 610.547 499.187 614.983 499.763 619.665C500.022 621.732 499.905 623.837 499.447 625.865C503.755 616.455 506.022 606.179 506.022 595.845C506.022 593.248 505.88 590.652 505.589 588.062C505.35 585.943 505.021 583.838 504.594 581.751C502.289 570.474 497.296 559.733 490.094 550.762C486.632 548.869 483.745 545.911 482.001 542.365C481.375 541.086 480.884 539.711 480.651 538.309C481.045 538.361 482.137 532.36 481.84 531.992C482.389 531.159 483.372 530.745 483.971 529.932C486.954 525.889 491.062 526.594 493.207 532.089C497.79 534.402 497.834 538.237 495.022 541.926C493.234 544.273 492.988 547.448 491.418 549.961C491.58 550.167 491.748 550.368 491.909 550.574C494.87 554.372 497.431 558.454 499.59 562.743C498.98 557.977 499.881 552.235 501.417 548.533C503.165 544.316 506.442 540.764 509.327 537.118C512.793 532.739 519.901 534.65 520.511 540.202C520.517 540.255 520.523 540.309 520.528 540.363C520.1 540.605 519.68 540.862 519.27 541.133C516.93 542.68 517.739 546.307 520.511 546.735L520.574 546.744C520.419 548.288 520.154 549.819 519.766 551.324C523.468 565.639 515.476 570.854 504.065 571.088C503.813 571.217 503.567 571.346 503.316 571.469C504.472 574.724 505.395 578.063 506.08 581.448C506.694 584.438 507.12 587.461 507.359 590.497C507.656 594.327 507.63 598.176 507.307 602L507.327 601.864C508.147 597.653 510.433 593.72 513.753 590.994C518.699 586.931 525.686 585.435 531.021 582.17C533.59 580.598 536.881 582.629 536.433 585.607L536.411 585.749C535.616 586.072 534.841 586.447 534.092 586.867C533.663 587.109 533.244 587.365 532.833 587.637C530.494 589.184 531.302 592.811 534.074 593.238L534.137 593.248C534.183 593.255 534.221 593.261 534.266 593.268C532.904 596.503 531.005 599.507 528.628 602.097C526.313 614.594 516.372 615.78 505.738 612.14H505.731C504.569 617.204 502.87 622.152 500.687 626.867H482.667C482.602 626.666 482.544 626.46 482.486 626.259C484.152 626.363 485.831 626.266 487.472 625.962C486.135 624.322 484.798 622.668 483.461 621.028C483.429 620.995 483.403 620.963 483.377 620.931C482.699 620.091 482.014 619.258 481.336 618.418L481.336 618.417C481.293 615.84 481.603 613.27 482.215 610.777Z" fill="#F2F2F2"/>
<path d="M586.606 604.963C589.419 605.139 590.973 601.644 588.845 599.608L588.634 598.766C588.661 598.699 588.689 598.631 588.718 598.564C591.562 591.782 601.202 591.829 604.022 598.621C606.525 604.649 609.711 610.688 610.496 617.062C610.848 619.876 610.69 622.742 610.065 625.504C615.93 612.692 619.017 598.702 619.017 584.634C619.017 581.099 618.823 577.564 618.427 574.038C618.102 571.154 617.654 568.287 617.073 565.447C613.934 550.095 607.137 535.472 597.333 523.258C592.62 520.682 588.689 516.655 586.315 511.827C585.462 510.086 584.794 508.213 584.478 506.305C585.014 506.376 586.5 498.207 586.095 497.706C586.843 496.571 588.181 496.008 588.997 494.901C593.057 489.396 598.651 490.357 601.571 497.838C607.809 500.986 607.87 506.208 604.042 511.229C601.607 514.424 601.272 518.747 599.135 522.168C599.355 522.449 599.584 522.722 599.804 523.003C603.835 528.174 607.321 533.731 610.261 539.57C609.43 533.081 610.656 525.264 612.747 520.225C615.127 514.483 619.588 509.648 623.516 504.684C628.235 498.723 637.911 501.324 638.742 508.882C638.75 508.955 638.758 509.028 638.766 509.102C638.182 509.431 637.611 509.78 637.052 510.15C633.867 512.256 634.968 517.193 638.742 517.776L638.827 517.789C638.616 519.891 638.256 521.975 637.728 524.023C642.768 543.513 631.888 550.611 616.352 550.93C616.009 551.106 615.675 551.282 615.332 551.449C616.906 555.88 618.164 560.426 619.096 565.034C619.931 569.105 620.511 573.22 620.837 577.353C621.241 582.567 621.206 587.808 620.766 593.013L620.793 592.829C621.909 587.096 625.022 581.741 629.542 578.03C636.275 572.499 645.787 570.463 653.051 566.017C656.547 563.877 661.028 566.642 660.417 570.696C660.408 570.761 660.398 570.825 660.388 570.89C659.306 571.33 658.251 571.84 657.231 572.411C656.648 572.741 656.076 573.09 655.518 573.459C652.333 575.566 653.433 580.503 657.207 581.086L657.293 581.099C657.354 581.108 657.407 581.116 657.468 581.125C655.613 585.53 653.028 589.619 649.792 593.145C646.641 610.159 633.107 611.773 618.63 606.818H618.621C617.038 613.712 614.726 620.448 611.753 626.867H587.221C587.133 626.594 587.054 626.313 586.975 626.04C589.243 626.181 591.53 626.049 593.763 625.636C591.943 623.402 590.123 621.151 588.302 618.918C588.259 618.874 588.223 618.83 588.188 618.786C587.265 617.643 586.333 616.508 585.41 615.365L585.409 615.364C585.351 611.855 585.773 608.357 586.606 604.963Z" fill="#F2F2F2"/>
<path d="M724.215 610.777C726.281 610.907 727.423 608.34 725.86 606.844L725.704 606.226C725.725 606.176 725.745 606.127 725.766 606.077C727.855 601.095 734.936 601.13 737.007 606.119C738.846 610.547 741.187 614.983 741.763 619.665C742.022 621.732 741.905 623.837 741.447 625.865C745.755 616.455 748.022 606.179 748.022 595.845C748.022 593.248 747.88 590.652 747.589 588.062C747.35 585.943 747.021 583.838 746.594 581.751C744.289 570.474 739.296 559.733 732.094 550.762C728.632 548.869 725.745 545.911 724.001 542.365C723.375 541.086 722.884 539.711 722.651 538.309C723.045 538.361 724.137 532.36 723.84 531.992C724.389 531.159 725.372 530.745 725.971 529.932C728.954 525.889 733.062 526.594 735.207 532.089C739.79 534.402 739.834 538.237 737.022 541.926C735.234 544.273 734.988 547.448 733.418 549.961C733.58 550.167 733.748 550.368 733.909 550.574C736.87 554.372 739.431 558.454 741.59 562.743C740.98 557.977 741.881 552.235 743.417 548.533C745.165 544.316 748.442 540.764 751.327 537.118C754.793 532.739 761.9 534.65 762.511 540.202C762.517 540.255 762.523 540.309 762.528 540.363C762.1 540.605 761.68 540.862 761.27 541.133C758.93 542.68 759.739 546.307 762.511 546.735L762.574 546.744C762.419 548.288 762.154 549.819 761.766 551.324C765.468 565.639 757.476 570.854 746.065 571.088C745.813 571.217 745.567 571.346 745.315 571.469C746.472 574.724 747.395 578.063 748.08 581.448C748.693 584.438 749.12 587.461 749.359 590.497C749.656 594.327 749.63 598.176 749.307 602L749.326 601.864C750.147 597.653 752.433 593.72 755.753 590.994C760.699 586.931 767.686 585.435 773.021 582.17C775.59 580.598 778.881 582.629 778.433 585.607L778.411 585.749C777.616 586.072 776.841 586.447 776.092 586.867C775.663 587.109 775.244 587.365 774.833 587.637C772.494 589.184 773.302 592.811 776.074 593.238L776.137 593.248C776.182 593.255 776.221 593.261 776.266 593.268C774.904 596.503 773.005 599.507 770.628 602.097C768.313 614.594 758.372 615.78 747.738 612.14H747.731C746.569 617.204 744.87 622.152 742.687 626.867H724.667C724.602 626.666 724.544 626.46 724.486 626.259C726.152 626.363 727.831 626.266 729.472 625.962C728.135 624.322 726.798 622.668 725.461 621.028C725.429 620.995 725.403 620.963 725.377 620.931C724.699 620.091 724.014 619.258 723.336 618.418L723.336 618.417C723.293 615.84 723.603 613.27 724.215 610.777Z" fill="#F2F2F2"/>
<path d="M276.831 604.435C279.712 604.615 281.303 601.037 279.124 598.951L278.908 598.089C278.936 598.02 278.965 597.951 278.994 597.882C281.906 590.937 291.778 590.985 294.666 597.941C297.229 604.114 300.493 610.299 301.297 616.826C301.657 619.708 301.495 622.643 300.855 625.471C306.862 612.351 310.022 598.024 310.022 583.616C310.022 579.996 309.824 576.376 309.419 572.766C309.086 569.812 308.627 566.877 308.032 563.968C304.818 548.246 297.857 533.271 287.816 520.763C282.99 518.124 278.965 514 276.533 509.057C275.66 507.274 274.976 505.356 274.651 503.402C275.201 503.474 276.723 495.108 276.308 494.595C277.074 493.433 278.444 492.856 279.28 491.722C283.438 486.085 289.166 487.069 292.157 494.73C298.545 497.954 298.607 503.302 294.687 508.444C292.193 511.716 291.851 516.143 289.662 519.646C289.888 519.934 290.122 520.214 290.347 520.502C294.475 525.797 298.046 531.488 301.055 537.467C300.205 530.822 301.461 522.817 303.602 517.656C306.039 511.777 310.607 506.825 314.63 501.742C319.463 495.636 329.372 498.301 330.223 506.04C330.231 506.115 330.239 506.19 330.247 506.265C329.649 506.602 329.064 506.96 328.492 507.339C325.231 509.496 326.358 514.552 330.223 515.148L330.31 515.162C330.094 517.314 329.725 519.448 329.184 521.546C334.345 541.505 323.203 548.774 307.294 549.101C306.943 549.281 306.6 549.461 306.249 549.632C307.861 554.171 309.149 558.826 310.103 563.545C310.959 567.714 311.553 571.928 311.886 576.16C312.3 581.5 312.264 586.867 311.814 592.198L311.841 592.009C312.985 586.138 316.172 580.654 320.801 576.854C327.696 571.19 337.437 569.104 344.876 564.551C348.457 562.36 353.045 565.192 352.42 569.343C352.41 569.409 352.4 569.476 352.39 569.542C351.282 569.992 350.202 570.514 349.157 571.1C348.56 571.437 347.974 571.795 347.402 572.173C344.141 574.33 345.268 579.386 349.133 579.983L349.22 579.996C349.283 580.005 349.337 580.014 349.4 580.024C347.5 584.535 344.853 588.722 341.539 592.333C338.312 609.756 324.452 611.409 309.626 606.335H309.617C307.996 613.395 305.628 620.293 302.584 626.866H277.461C277.371 626.587 277.29 626.299 277.209 626.02C279.532 626.164 281.873 626.029 284.16 625.606C282.296 623.319 280.432 621.013 278.568 618.726C278.523 618.681 278.487 618.636 278.451 618.591C277.506 617.42 276.551 616.259 275.606 615.088L275.605 615.087C275.546 611.493 275.978 607.911 276.831 604.435Z" fill="#F2F2F2"/>
<path d="M141.215 610.777C143.28 610.907 144.422 608.34 142.859 606.844L142.704 606.226C142.724 606.176 142.745 606.127 142.765 606.077C144.855 601.095 151.935 601.13 154.007 606.119C155.845 610.547 158.186 614.983 158.763 619.665C159.021 621.732 158.905 623.837 158.446 625.865C162.754 616.455 165.021 606.179 165.021 595.845C165.021 593.248 164.879 590.652 164.589 588.062C164.35 585.943 164.02 583.838 163.594 581.751C161.288 570.474 156.295 559.733 149.094 550.762C145.632 548.869 142.745 545.911 141.001 542.365C140.374 541.086 139.883 539.711 139.651 538.309C140.045 538.361 141.136 532.36 140.839 531.992C141.388 531.159 142.371 530.745 142.971 529.932C145.953 525.889 150.062 526.594 152.207 532.089C156.789 534.402 156.834 538.237 154.022 541.926C152.233 544.273 151.987 547.448 150.418 549.961C150.579 550.167 150.747 550.368 150.909 550.574C153.87 554.372 156.431 558.454 158.59 562.743C157.98 557.977 158.88 552.235 160.416 548.533C162.164 544.316 165.441 540.764 168.327 537.118C171.793 532.739 178.9 534.65 179.511 540.202C179.517 540.255 179.522 540.309 179.528 540.363C179.099 540.605 178.679 540.862 178.269 541.133C175.93 542.68 176.738 546.307 179.51 546.735L179.573 546.744C179.418 548.288 179.153 549.819 178.766 551.324C182.468 565.639 174.476 570.854 163.064 571.088C162.812 571.217 162.567 571.346 162.315 571.469C163.471 574.724 164.395 578.063 165.079 581.448C165.693 584.438 166.119 587.461 166.358 590.497C166.655 594.327 166.63 598.176 166.307 602L166.326 601.864C167.146 597.653 169.433 593.72 172.753 590.994C177.698 586.931 184.685 585.435 190.021 582.17C192.589 580.598 195.88 582.629 195.432 585.607L195.41 585.749C194.616 586.072 193.841 586.447 193.092 586.867C192.663 587.109 192.243 587.365 191.833 587.637C189.493 589.184 190.302 592.811 193.074 593.238L193.137 593.248C193.182 593.255 193.221 593.261 193.266 593.268C191.903 596.503 190.004 599.507 187.627 602.097C185.313 614.594 175.371 615.78 164.737 612.14H164.731C163.568 617.204 161.869 622.152 159.686 626.867H141.666C141.601 626.666 141.543 626.46 141.485 626.259C143.152 626.363 144.831 626.266 146.471 625.962C145.134 624.322 143.798 622.668 142.461 621.028C142.428 620.995 142.402 620.963 142.377 620.931C141.698 620.091 141.014 619.258 140.336 618.418L140.335 618.417C140.293 615.84 140.602 613.27 141.215 610.777Z" fill="#F2F2F2"/>
<path d="M214.719 313.122C214.719 313.122 182.818 311.624 189.845 320.49C194.419 326.26 215.739 358.755 227.834 365.26C233.858 368.5 241.36 365.883 244.076 359.607L266.617 307.516L251.828 302.151L233.934 343.368L214.719 313.122Z" fill="#A0616A"/>
<path d="M259.507 310.013C265.582 310.013 270.507 305.088 270.507 299.013C270.507 292.938 265.582 288.013 259.507 288.013C253.432 288.013 248.507 292.938 248.507 299.013C248.507 305.088 253.432 310.013 259.507 310.013Z" fill="#A0616A"/>
<path d="M272.179 359.671L229.375 355.38L229.549 354.798C238.176 325.999 245.222 300.878 244.044 285.127C244.01 284.678 244.229 284.254 244.614 284.016C245.004 283.778 245.489 283.775 245.88 284.011L291.136 311.404L287.733 326.798L272.179 359.671Z" fill="#E6E6E6"/>
<path d="M224.428 387.219L234.287 419.37L189.428 424.219L205.428 383.219L224.428 387.219Z" fill="#A0616A"/>
<path d="M235.408 362.339C234.338 369.979 234.088 377.199 235.428 381.219C235.784 382.288 241.12 390.102 241.428 391.219C244.182 401.203 232.428 403.219 232.428 403.219L187.335 418.19C184.739 419.052 182.553 416.044 184.212 413.869C187.91 409.018 191.289 402.011 191.048 392.729C190.673 378.266 184.272 355.264 180.734 343.568C179.278 338.755 179.629 333.583 181.714 329.007L186.748 317.959L194.068 301.909L196.428 290.219L217.428 291.219L220.018 300.729L239.558 330.559C240.348 331.769 240.868 333.119 241.098 334.509C241.408 336.249 241.258 338.069 240.648 339.779C238.618 345.469 236.548 354.139 235.408 362.339Z" fill="#FDF9B2"/>
<path d="M177.057 277.616C185.447 288.076 170.567 304.916 179.687 314.746C177.937 315.446 176.067 315.716 174.187 315.626C174.097 315.306 173.997 314.986 173.897 314.676C173.087 312.156 172.007 309.726 170.657 307.446C170.917 309.926 170.717 312.466 170.057 314.876C168.647 314.446 167.287 313.826 166.027 313.066C165.867 312.976 165.727 312.886 165.567 312.776C161.447 305.086 159.857 296.036 161.307 287.436C158.527 291.446 155.847 295.656 154.367 300.286C149.357 292.366 145.877 283.336 146.097 274.016C146.317 263.646 151.897 253.006 161.377 248.786C165.287 247.046 169.927 246.266 172.657 242.966C174.127 241.206 174.827 238.946 175.887 236.906C176.947 234.866 178.597 232.886 180.877 232.556C182.237 232.366 183.687 233.116 184.437 234.196C180.747 238.236 180.957 244.796 182.157 250.306C183.437 256.226 187.307 263.566 183.357 268.156C180.927 270.986 169.027 267.616 177.057 277.616Z" fill="#2F2E41"/>
<path d="M225.881 268.688C225.34 266.793 229.073 278.381 227.272 278.59C219.066 279.532 207.803 284.432 202.088 286.718C201.83 286.689 201.573 286.659 201.323 286.621C200.71 286.554 200.112 286.457 199.522 286.345C186.214 283.827 181.097 263.386 181.097 263.199C181.097 262.28 183.303 237.041 186.777 236.667C187.678 236.57 188.594 236.518 189.525 236.518H198.146C199.978 236.129 201.795 235.86 203.559 235.733H203.574C228.425 232.899 240.425 243.819 233.337 257.863C233.329 257.878 233.314 257.893 233.307 257.908C232.936 258.46 232.61 258.983 232.322 259.484C232.042 259.955 231.808 260.403 231.603 260.829C230.021 264.116 234.088 268.253 231.391 269.025C227.805 270.051 240.824 303.803 226.628 303.803C233.533 305.766 227.376 273.918 225.881 268.688Z" fill="#2F2E41"/>
<path d="M210.387 288.492C221.661 288.492 230.8 279.353 230.8 268.079C230.8 256.806 221.661 247.667 210.387 247.667C199.114 247.667 189.975 256.806 189.975 268.079C189.975 279.353 199.114 288.492 210.387 288.492Z" fill="#A0616A"/>
<path d="M233.337 258.977C232.998 259.156 232.668 259.316 232.327 259.486C231.967 259.656 231.607 259.826 231.258 259.986C228.977 261.016 226.837 261.746 224.878 262.076C224.327 260.357 223.587 258.696 222.668 257.136C222.847 258.866 222.697 260.636 222.227 262.316C219.498 262.266 217.207 261.236 215.477 258.977C215.387 256.646 214.868 254.326 213.928 252.176C214.108 254.556 213.447 256.986 212.128 258.977L212.477 286.966C205.477 291.616 220.597 307.296 218.477 310.966C217.868 310.896 197.077 284.856 196.488 284.746C183.178 282.227 174.727 260.306 175.808 259.066C175.808 255.417 176.657 251.976 178.178 248.896C180.147 244.896 183.238 241.536 187.068 239.227C189.318 238.136 191.697 237.246 194.168 236.566C194.228 236.546 194.277 236.536 194.337 236.516C195.087 236.316 195.857 236.126 196.618 235.977C198.188 235.646 199.777 235.396 201.397 235.246C201.517 235.236 201.628 235.236 201.738 235.236C202.397 235.236 203.017 235.417 203.558 235.736H203.577C203.967 235.977 204.318 236.276 204.587 236.646C205.058 237.246 205.327 237.986 205.327 238.806H212.897C213.178 238.806 213.457 238.806 213.738 238.826C224.288 239.246 232.758 247.536 233.308 257.906C233.328 258.266 233.337 258.616 233.337 258.977Z" fill="#2F2E41"/>
<path d="M202.153 239.003C202.153 246.43 196.133 252.451 188.705 252.451C181.278 252.451 175.257 246.43 175.257 239.003C175.257 231.575 181.278 225.555 188.705 225.555C196.133 225.555 202.153 231.575 202.153 239.003Z" fill="#2F2E41"/>
<path d="M769.724 539.087V499.913C774.578 497.746 778 492.56 778 486.5C778 480.44 774.578 475.254 769.724 473.087V456.5C769.724 454.567 768.283 453 766.505 453C764.728 453 763.287 454.567 763.287 456.5V472C633.844 477.023 505.464 481.791 437.759 472V456.5C437.759 454.567 436.318 453 434.54 453C432.763 453 431.322 454.567 431.322 456.5V472H107.633V456.5C107.633 454.567 106.192 453 104.414 453C102.637 453 101.196 454.567 101.196 456.5V472.721C95.8592 474.615 92 480.064 92 486.5C92 492.936 95.8592 498.385 101.196 500.279V538.721C95.8592 540.615 92 546.064 92 552.5C92 558.936 95.8592 564.385 101.196 566.279V623.5C101.196 625.433 102.637 627 104.414 627C106.192 627 107.633 625.433 107.633 623.5V567H431.322V623.5C431.322 625.433 432.763 627 434.54 627C436.318 627 437.759 625.433 437.759 623.5V567H763.287V623.5C763.287 625.433 764.728 627 766.505 627C768.283 627 769.724 625.433 769.724 623.5V565.913C774.578 563.746 778 558.56 778 552.5C778 546.44 774.578 541.254 769.724 539.087ZM107.633 501C233.565 489.872 356.786 480.418 431.322 501C424.436 513.446 424.308 525.781 431.322 538C345.423 549.027 230.465 545.487 107.633 538C111.496 527.022 110.783 514.439 107.633 501ZM437.759 538V501H763.287C749.658 513.004 747.586 525.287 763.287 538C700.289 561.402 560.06 545.092 437.759 538Z" fill="#E6E6E6"/>
<path d="M271.678 375.032C270.952 375.032 270.217 374.96 269.478 374.81L227.602 366.301C224.936 365.759 222.688 364.063 221.436 361.647C220.184 359.231 220.094 356.417 221.19 353.926L237.383 317.091C238.27 315.071 240.35 313.785 242.551 313.92L280.159 316.017C281.178 316.061 281.76 315.435 281.988 314.82C282.217 314.204 282.178 313.329 281.384 312.718L245.202 284.944C244.954 284.751 244.901 284.409 245.077 284.149C245.255 283.889 245.591 283.814 245.861 283.974L292.235 311.047C295.649 313.042 297.234 317.076 296.09 320.859L282.039 367.309C280.625 371.987 276.381 375.032 271.678 375.032Z" fill="#3F3D56"/>
<path d="M223.477 330.966C223.477 330.966 201.591 307.708 200.477 318.966C199.753 326.293 192.481 364.472 196.652 377.558C198.729 384.074 205.94 387.41 212.256 384.787L264.675 363.021L257.777 348.883L216.258 366.065L223.477 330.966Z" fill="#A0616A"/>
<path d="M265.478 362.967C271.553 362.967 276.478 358.042 276.478 351.967C276.478 345.892 271.553 340.967 265.478 340.967C259.403 340.967 254.478 345.892 254.478 351.967C254.478 358.042 259.403 362.967 265.478 362.967Z" fill="#A0616A"/>
<path d="M63 628C63 628.555 63.5012 629 64.1254 629H804.875C805.499 629 806 628.555 806 628C806 627.445 805.499 627 804.875 627H64.1254C63.5012 627 63 627.445 63 628Z" fill="#CCCCCC"/>
<path d="M210.325 595.547L218.37 601.504L245.175 573.305L233.3 564.513L210.325 595.547Z" fill="#A0616A"/>
<path d="M220.511 604.211L224.549 598.756L222.339 597.319L213.351 591.455L211.268 590.102L196.219 607.241L195.413 608.16L201.125 612.389L202.029 611.553L206.132 607.747L205.001 613.753L204.75 615.073L219.896 626.287C220.8 626.957 221.885 627.213 222.923 627.076C224.041 626.945 225.099 626.37 225.819 625.398C228.669 622.886 220.852 607.106 220.511 604.211Z" fill="#2F2E41"/>
<path d="M308.429 511.219L306.398 513.549L300.499 520.309L237.429 592.219L216.429 578.219C232.209 548.139 242.359 529.649 259.398 516.769C264.119 513.199 269.379 510.059 275.429 507.219C275.429 507.219 257.949 500.839 237.549 492.989C235.759 492.299 233.939 491.599 232.109 490.879C215.239 484.329 197.289 477.099 185.999 471.789C179.129 468.559 175.449 463.389 173.959 457.449C169.669 440.519 183.029 417.279 190.429 414.609L234.429 413.219L239.859 446.719L240.429 450.219C240.429 450.219 256.549 458.009 273.469 465.799C276.009 466.959 278.559 468.129 281.079 469.269C285.079 471.069 288.979 472.809 292.599 474.379C292.681 474.415 292.764 474.451 292.847 474.487C303.338 479.018 309.868 489.631 309.108 501.034L308.429 511.219Z" fill="#2F2E41"/>
</svg>
